<?xml version="1.0" encoding="utf-8" ?><svg xmlns="http://www.w3.org/2000/svg" xmlns:xlink="http://www.w3.org/1999/xlink" width="1024" height="1024" viewBox="0 0 1024 1024"><path fill="#2E323F" d="M0 0L1024 0L1024 1024L0 1024L0 0Z"/><path fill="#2DF8CE" d="M712.851 174.165L688.592 160.833C684.947 158.866 673.944 154.122 671.427 150.027C671.184 149.633 671.628 148.882 671.825 148.375C675.398 145.59 685.902 139.903 690.297 137.398L722.176 119.003L780.469 85.6781C792.309 78.7572 812.716 66.0348 824.957 60.3262C832.3 64.9234 839.758 69.3353 847.322 73.5578C852.331 76.3259 862.795 81.7235 866.988 84.9099C867.584 134.268 867.031 185 867.023 234.416L867.063 485.919L867.047 658.548C867.054 681.514 867.768 707.068 867.339 729.762C851.132 739.419 834.199 747.297 817.839 756.54L684.269 830.784L612.855 871.736L496.982 938.981C487.205 944.675 477.471 950.443 467.781 956.284C463.296 958.963 454.712 964.324 450.264 966.176C444.602 963.512 438.003 959.5 432.493 956.36L404.398 940.475C375.312 923.978 346.122 907.665 316.83 891.538L289.24 876.021C285.185 873.747 277.864 869.384 273.804 867.704C264.694 871.919 250.033 880.943 241.092 886.132L184.62 918.7C174.188 924.742 154.441 936.401 143.726 941.421C132.576 934.742 121.488 928.185 109.945 922.196C107.465 920.91 105.294 919.681 103.047 917.995C102.967 904.726 102.958 891.458 103.02 878.189C107.129 874.228 120.595 867.23 126.164 864.028L181.648 831.899C193.489 825.147 209.292 816.87 220.368 808.722C221.633 807.791 227.562 798.001 228.893 795.854L245.844 768.3L287.617 701.098C292.387 693.3 297.675 685.489 302.561 677.68L391.813 537.798L438.851 463.315C443.227 456.508 448.633 446.627 453 440.5C461.422 443.795 470.771 450.111 478.878 454.48C493.524 462.373 508.269 471.368 522.943 479.057L523.242 478.29C520.987 476.83 520.94 477.356 520.519 475.467C521.681 472.197 532.21 456.764 534.936 452.5L565.979 403.448L672.348 237.225L699.707 194.6C703.449 188.801 709.585 179.989 712.851 174.165Z"/><path fill="#111715" d="M523.242 478.29C528.939 481.045 553.898 492.643 556.992 496.082C554.005 495.501 527.014 481.409 522.943 479.057L523.242 478.29Z"/><path fill="#2E323F" d="M824.321 152.349C824.948 154.912 824.851 164.926 824.863 167.938L824.786 200.846L824.828 319.185L824.614 603.982C824.553 650.242 825.334 698.774 824.13 744.877C816.778 740.272 808.317 736.007 800.633 731.849C791.58 726.907 782.583 721.864 773.642 716.722L773.771 569.056C773.919 551.952 773.89 534.847 773.686 517.743C773.587 512.396 773.762 501.545 772.844 496.834C761.982 441.101 647.002 440.358 628.488 490.355C626.197 496.544 627.197 531.952 627.235 541.437L626.964 603.686C614.391 597.758 600.227 595.442 585.006 595.337C560.389 595.166 516.895 603.699 507.348 630.782C505.291 636.614 505.982 654.529 505.994 661.822L506.148 699.007L505.754 737.568C476.935 721.643 431.22 724.437 402.525 739.202C394.479 743.342 386.493 749.037 378.431 753.444C361.344 762.784 343.726 772.173 327.814 783.405C334.73 771.903 342.348 760.762 349.51 749.402C374.409 709.791 399.709 670.434 425.406 631.336L469.236 562.979C478.359 548.597 487.759 533.143 497.258 519.178C510.054 526.156 522.908 533.027 535.818 539.79C541.182 542.658 557.542 552.565 562.497 552.587C565.128 549.657 568.15 544.631 570.483 541.312C577.356 531.531 583.429 521.232 589.863 511.145L637.511 437.452L734.193 289.432C763.982 243.597 793.186 197.321 824.321 152.349Z"/><path fill="#2E323F" d="M860.88 89.9183C861.722 90.8303 861.657 91.1537 861.649 92.7426C861.565 110.326 861.733 127.951 861.837 145.53L862.03 295.072L862.033 726.047C851.464 731.825 840.586 737.974 829.779 743.215C830.582 692.732 830.199 640.586 830.119 590.029L830.064 408.941L830.069 205.75C830.058 184.192 830.185 162.61 830.365 141.054C830.377 139.587 830.362 139.4 829.708 138.156C828.178 137.241 828.962 137.383 827.31 137.557C824.237 139.839 784.807 201.823 779.713 209.71L623.591 449.296L585.48 508.415C578.497 519.424 568.105 536.694 560.266 546.592C553.405 543.555 544.6 538.591 537.836 534.966C523.503 527.335 509.249 519.559 495.074 511.639C487.538 525.426 477.633 539.944 469.107 553.322L418.324 632.317L364.127 716.059L296.805 822.403C290.166 832.915 279.022 852.455 271.224 862.347C263.578 866.501 256.179 870.738 248.581 875.017C226.125 887.663 203.881 900.944 181.488 913.672C170.065 920.165 157.704 926.261 147.04 933.714L147.043 901.559C153.919 896.902 165.768 890.847 173.32 886.411L231.011 852.468C238.249 848.264 253.955 839.716 259.866 834.729C262.317 832.661 272.911 815.57 275.562 811.472C292 785.592 308.293 759.619 324.439 733.555L450.944 534.26C464.876 512.644 478.29 490.344 492.523 469.052C497.769 471.222 504.6 475.46 509.898 478.104C525.484 485.886 542.431 496.474 558.121 503.518C564.04 497.785 572.291 482.022 577.111 474.634C585.237 462.175 593.223 449.353 601.23 436.801C638.215 378.679 675.657 320.848 713.554 263.316C722.858 249.267 731.999 235.112 740.976 220.852C743.614 216.742 757.11 197.326 757.063 194.381C753.945 190.459 725.978 175.761 720.281 172.699C737.332 160.483 760.007 148.024 778.383 137.428L860.88 89.9183Z"/><path fill="#2E323F" d="M773.932 723.53C789.177 731.343 804.44 740.464 819.724 748.502C808.938 755.251 796.159 762.007 784.912 768.36L708.349 810.709C682.547 824.745 655.613 840.635 629.983 855.229C591.861 876.997 553.863 898.981 515.99 921.179C505.082 927.604 494.286 933.85 483.361 940.202C472.256 946.658 461.878 953.564 450.349 959.622C428.83 948.736 404.377 933.632 382.856 921.754L326.4 890.212C310.163 881.258 293.535 872.61 277.701 862.998C280.595 858.159 284.002 853.001 287.042 848.204C294.69 835.576 302.478 823.032 310.403 810.576C312.192 807.73 320.495 794.016 322.041 793.038C337.901 783.003 364.096 767.558 380.08 759.16C378.168 762.663 377.52 764.902 377.411 768.901C376.587 798.872 377.573 828.869 377.349 858.85C377.332 861.068 377.356 865.98 377.968 868.016C385.472 892.996 421.465 900.61 443.988 901.847C470.184 902.701 512.477 896.798 524.963 869.915C527.618 863.988 526.547 836.3 526.856 828.001C559.253 844.717 633.031 846.588 652.742 807.503C655.391 802.253 654.65 776.136 654.925 768.379C673.764 775.254 684.928 778.637 705.813 777.933C726.859 777.223 751.489 770.201 766.453 754.561C775.608 744.993 774.445 735.507 773.932 723.53Z"/><path fill="#2E323F" d="M455.214 447.722C465.795 453.052 477.711 460.254 488.06 466.328C466.631 499.221 445.507 532.312 424.691 565.596L326.414 720.157L284.487 786.958C277.023 799.005 265.367 818.975 257.068 829.716C257.041 829.727 257.016 829.747 256.987 829.75C254.434 830.016 228.936 814.706 225.006 812.455C235.669 794.049 249.355 773.385 260.756 754.983L360.717 596.865L387.896 553.611C391.83 547.434 395.808 541.232 399.86 535.134C418.834 506.582 435.917 476 455.214 447.722Z"/><path fill="#2E323F" d="M717.644 176.771C725.665 182.336 741.781 190.947 750.954 196.263C740.473 211.669 731.011 227.219 720.802 242.679C686.604 294.437 652.785 346.445 619.348 398.697L575.909 466.469C571.05 473.949 565.957 482.991 560.896 490.018C550.425 485.291 537.053 479.546 527.232 474.164C560.842 423.167 593.698 369.647 626.644 318.07L682.122 231.506C694.121 213.364 705.962 195.118 717.644 176.771Z"/><path fill="#2DF8CE" d="M678.069 461.188C690.422 458.58 710.211 457.481 722.31 461.571C740.838 463.871 767.677 479.049 764.401 501.268C764.258 502.307 764.043 503.335 763.756 504.344C758.49 516.168 752.156 522.174 740.188 527.678C719.788 537.102 691.241 536.774 670.023 530.357C658.708 526.934 644.511 520.415 638.657 509.457C636.975 507.101 635.609 504.362 635.111 501.51C631.002 478.005 660.446 465.069 678.069 461.188Z"/><path fill="#212B2B" d="M722.31 461.571C740.838 463.871 767.677 479.049 764.401 501.268C764.258 502.307 764.043 503.335 763.756 504.344L761.262 504.185C767.382 480.211 738.434 467.017 719.838 462.745L721.992 462.236L722.31 461.571Z"/><path fill="#111715" d="M638.657 509.457C636.975 507.101 635.609 504.362 635.111 501.51C631.002 478.005 660.446 465.069 678.069 461.188L679.849 462.177C660.328 466.514 632.489 479.618 639.137 504.321C639.391 505.262 639.602 505.967 639.762 506.94C638.768 506.256 638.424 505.882 637.58 505.032L637.439 505.232L637.7 506.08L638.095 506.195L637.774 506.669C638.034 507.458 638.486 508.689 638.657 509.457Z"/><path fill="#0B3324" d="M638.657 509.457C638.486 508.689 638.034 507.458 637.774 506.669L638.095 506.195L637.7 506.08L637.439 505.232L637.58 505.032C638.424 505.882 638.768 506.256 639.762 506.94C643.495 512.966 647.553 518.316 653.8 521.87C678.397 535.865 714.516 538.45 740.149 526.88L740.188 527.678C719.788 537.102 691.241 536.774 670.023 530.357C658.708 526.934 644.511 520.415 638.657 509.457Z"/><path fill="#111715" d="M678.069 461.188C690.422 458.58 710.211 457.481 722.31 461.571L721.992 462.236L719.838 462.745C708.305 459.552 691.498 459.613 679.849 462.177L678.069 461.188Z"/><path fill="#111715" d="M761.262 504.185L763.756 504.344C758.49 516.168 752.156 522.174 740.188 527.678L740.149 526.88C748.861 520.953 757.799 514.604 761.262 504.185Z"/><path fill="#2E323F" d="M693.2 465.703C709.305 463.704 733.324 470.166 745.897 480.616C755.946 488.969 757.957 502.939 748.801 512.743C737.175 525.191 723.112 528.496 706.847 529.321C689.461 529.454 668.609 525.956 654.352 515.118C644.073 507.304 641.206 493.841 650.439 483.706C661.706 471.336 677.005 467.113 693.2 465.703Z"/><path fill="#2DF8CE" d="M700.56 499.514C696.007 501.422 690.474 502.663 685.13 501.994C677.651 501.058 664.696 496.917 667.478 486.834C667.738 485.889 671.221 484.176 671.316 483.229C671.501 481.389 669.542 481.573 669.947 478.984C672.404 477.828 673.604 479.991 676.915 478.927C677.775 476.692 675.591 474.291 676.352 472.038C678.119 472.563 681.162 475.258 682.81 476.558C687.267 475.427 694.147 474.07 698.302 476.519C699.229 477.881 699.162 477.205 698.925 478.543C697.471 479.367 689.774 480.823 687.465 481.39C690.787 484.472 695.302 488.046 698.84 491.013C703.267 489.336 706.435 488.206 711.18 487.765C722.261 486.735 741.323 491.964 732.703 506.803C732.375 507.367 728.606 510.071 727.758 510.904L727.273 511.387C725.662 512.637 725.142 513.157 723.043 513.496L722.329 513.287L721.462 513.86C721.769 515.468 721.788 515.706 721.793 517.345L721.116 517.962C719.288 517.736 718.433 516.907 716.914 515.847C712.887 516.527 694.596 518.375 691.76 516.403L692.954 514.713C692.689 513.195 691.105 511.389 690.117 509.995C696.747 509.888 703.14 510.596 710.283 510.429C706.889 505.755 704.81 503.375 700.56 499.514Z"/><path fill="#2E323F" d="M709.894 495.087C714.055 494.837 725.689 494.69 724.722 502.843C724.474 504.926 720.35 506.798 718.508 507.57C717.014 508.071 716.828 508.093 715.256 508.29C711.251 506.893 706.609 500.497 703.837 497.155C706.306 496.013 707.238 495.763 709.894 495.087Z"/><path fill="#2E323F" d="M683.06 482.794C685.921 483.493 692.673 490.675 695.288 493.102L690.771 494.387C689.931 494.529 689.088 494.648 688.242 494.746C678.534 495.776 674.254 490.125 683.06 482.794Z"/><path fill="#43F6DD" d="M727.273 511.387C729.177 513.473 731.224 515.441 732.526 517.91L732.475 518.933C730.865 519.214 729.428 518.315 728.142 517.403C726.4 516.156 724.7 514.853 723.043 513.496C725.142 513.157 725.662 512.637 727.273 511.387Z"/><path fill="#2DF8CE" d="M404.158 743.796C431.972 727.33 487.199 725.598 511.943 748.92C528.371 763.292 520.54 783.6 503.1 791.552C487.313 800.328 472.673 803.637 454.505 803.978C434.076 804.361 406.307 798.751 391.138 783.921C375.366 766.866 388.223 752.641 404.158 743.796Z"/><defs><linearGradient id="gradient_0" gradientUnits="userSpaceOnUse" x1="400.56787" y1="764.22089" x2="385.1059" y2="763.42987"><stop offset="0" stop-color="#00160C"/><stop offset="1" stop-color="#332426"/></linearGradient></defs><path fill="url(#gradient_0)" d="M404.158 743.796L404.553 744.594C391.222 753.869 382.011 767.272 393.357 782.803L391.138 783.921C375.366 766.866 388.223 752.641 404.158 743.796Z"/><path fill="#0B3324" d="M404.158 743.796C431.972 727.33 487.199 725.598 511.943 748.92C511.305 749.5 511.088 749.832 510.351 750.167C487.531 730.275 453.632 729.35 425.51 736.108C418.832 737.712 410.658 741.536 404.553 744.594L404.158 743.796Z"/><path fill="#0B3324" d="M391.138 783.921L393.357 782.803C417.07 809.018 473.821 807.673 502.503 790.525L503.1 791.552C487.313 800.328 472.673 803.637 454.505 803.978C434.076 804.361 406.307 798.751 391.138 783.921Z"/><path fill="#111715" d="M511.943 748.92C528.371 763.292 520.54 783.6 503.1 791.552L502.503 790.525C518.689 779.849 524.604 766.564 510.351 750.167C511.088 749.832 511.305 749.5 511.943 748.92Z"/><path fill="#2E323F" d="M449.303 737.213C466.265 735.826 486.79 739.865 500.566 750.444C510.763 758.274 513.37 771.291 504.375 781.313C492.77 794.244 474.273 797.215 457.788 798.456C441.46 798.634 418.55 796.089 405.181 785.791C394.818 777.809 391.74 765.109 401.515 754.953C413.903 742.082 432.148 738.3 449.303 737.213Z"/><path fill="#2DF8CE" d="M429.427 742.664C431.879 744.191 434.191 745.915 436.53 747.611C443.379 746.502 444.724 746.467 449.088 752.019L440.92 752.283C442.974 755.249 445.289 758.108 447.525 760.948C458.255 757.903 482.413 757.401 487.1 773.041C489.008 779.409 476.16 782.602 474.359 784.687L475.56 786.156L475.132 786.755C471.861 787.665 470.172 787.124 466.666 787.002C465.369 787.475 464.638 787.791 463.278 788.087C457.611 787.637 444.292 788.865 439.763 784.566C438.454 777.614 449.234 781.75 452.335 781.962C454.481 782.109 456.604 782.028 458.754 781.954C455.6 776.167 452.081 772.305 447.789 767.393L447.1 767.627C425.84 774.643 397.294 756.32 433.101 748.094L429.427 742.664Z"/><path fill="#2E323F" d="M454.06 764.698C462.053 763.755 483.472 768.667 471.846 778.609C469.486 779.921 467.138 780.658 464.599 781.572C462.671 779.313 453.457 766.933 454.06 764.698Z"/><path fill="#2E323F" d="M435.489 753.611C437.787 753.729 441.511 760.431 442.718 762.301C438.695 763.049 438.265 763.083 434.221 763.014C431.476 762.416 429.59 762.03 427.559 760.102C426.815 758.206 426.85 759.143 427.458 757.191C429.888 754.598 432.075 754.388 435.489 753.611Z"/><path fill="#2DF8CE" d="M463.278 788.087C464.638 787.791 465.369 787.475 466.666 787.002C467.677 788.473 468.98 789.927 468.971 791.621L468.347 792.348C465.606 792.163 464.693 790.191 463.278 788.087Z"/><path fill="#2DF8CE" d="M561.945 602.036C568.903 599.802 588.441 599.528 596.114 600.628C607.393 600.849 623.223 605.943 633.074 611.401C644.593 619.227 652.564 629.127 647.51 644.023C644.674 649.306 643.377 650.218 639.165 654.151C617.914 670.749 583.206 675.829 557.332 669.673C542.522 666.029 530.762 662.213 519.293 651.767C510.543 641.976 510.911 630.926 519.713 621.474C532.482 609.658 544.954 605.25 561.945 602.036Z"/><defs><linearGradient id="gradient_1" gradientUnits="userSpaceOnUse" x1="520.51672" y1="636.42297" x2="513.53424" y2="636.9519"><stop offset="0" stop-color="#222B2A"/><stop offset="1" stop-color="#322F31"/></linearGradient></defs><path fill="url(#gradient_1)" d="M519.293 651.767C510.543 641.976 510.911 630.926 519.713 621.474L521.285 623.423C515.124 632.887 514.83 641.494 521.545 650.866L519.293 651.767Z"/><path fill="#212B2B" d="M633.074 611.401C644.593 619.227 652.564 629.127 647.51 644.023L645.603 643.132C649.234 628.405 642.142 620.587 631.044 612.71L633.074 611.401Z"/><path fill="#176F54" d="M638.347 653.588L639.165 654.151C617.914 670.749 583.206 675.829 557.332 669.673L558.078 669.091C559.397 669.302 560.718 669.506 562.039 669.703C588.484 673.625 616.475 669.817 638.347 653.588Z"/><path fill="#111715" d="M561.945 602.036L561.913 602.814C547.285 606.605 531.21 610.829 521.285 623.423L519.713 621.474C532.482 609.658 544.954 605.25 561.945 602.036Z"/><path fill="#111715" d="M596.114 600.628C607.393 600.849 623.223 605.943 633.074 611.401L631.044 612.71C622.164 607.721 607.189 601.444 596.943 601.507L596.114 600.628Z"/><path fill="#0B3324" d="M521.545 650.866C531.247 661.713 544.383 665.581 558.078 669.091L557.332 669.673C542.522 666.029 530.762 662.213 519.293 651.767L521.545 650.866Z"/><path fill="#176F54" d="M561.945 602.036C568.903 599.802 588.441 599.528 596.114 600.628L596.943 601.507C586.695 600.009 571.96 601.15 561.913 602.814L561.945 602.036Z"/><path fill="#111715" d="M645.603 643.132L647.51 644.023C644.674 649.306 643.377 650.218 639.165 654.151L638.347 653.588C642.123 650.631 643.922 647.432 645.603 643.132Z"/><path fill="#2E323F" d="M585.741 605.213C603.095 605.009 637.091 613.669 638.711 635.476C639.746 649.403 622.623 658.253 611.502 662.065C600.249 665.923 588.752 666.5 576.886 666.52C562.128 666.314 544.859 662.688 532.892 653.643C521.919 645.35 520.415 633.387 530.007 623.13C543.215 609.007 567.595 606.148 585.741 605.213Z"/><path fill="#2DF8CE" d="M565.863 615.567C564.532 613.916 563.868 613.686 563.657 611.94L564.485 611.717C567.061 612.526 567.697 613.249 569.764 614.904C573.638 614.543 578.646 614.074 582.398 615.302C584.698 616.055 585.548 619.148 584.585 621.17C580.216 620.158 578.626 619.733 574.162 619.995L573.238 620.055C575.189 622.935 578.088 626.5 580.253 629.365C587.248 628.985 618.195 627.565 614.915 644.035C614.079 648.234 606.38 651.576 602.466 653.394C602.083 654.316 602.034 655.056 601.952 656.045C601.006 656.727 601.547 656.576 600.308 656.408C598.746 654.746 598.344 653.934 596.051 654.639L595.626 655.503C594.067 655.94 593.751 656.138 592.121 656.052C591.917 655.899 591.713 655.747 591.508 655.594C587.437 656.504 584.704 656.808 580.638 656.175C574.145 655.165 570.468 653.43 565.042 650.037C567.711 648.909 570.368 648.136 573.129 647.282C580.872 649.837 581.386 650.074 589.445 649.468C586.525 644.64 583.323 639.988 579.857 635.535C571.882 636.135 563.373 636.726 555.961 633.044C552.458 631.335 547.902 627.162 550.774 622.98C552.19 620.917 554.287 619.767 556.43 618.569C559.374 616.923 562.588 616.281 565.863 615.567Z"/><path fill="#2E323F" d="M585.498 635.251C590.631 635.286 610.813 635.729 601.627 645.594C598.501 647.352 596.72 647.734 593.298 648.654C590.82 644.117 588.218 639.648 585.498 635.251Z"/><path fill="#2E323F" d="M566.997 620.888C569.792 620.969 573.944 627.561 575.628 629.826C573.576 630.122 571.42 630.349 569.353 630.6C565.96 629.976 563.451 629.706 561.463 626.708C560.98 622.792 563.837 622.165 566.997 620.888Z"/><path fill="#2DF8CE" d="M592.121 656.052C593.751 656.138 594.067 655.94 595.626 655.503C596.427 657.256 597.336 658.556 596.951 660.348L596.118 660.818C593.529 659.946 593.14 658.403 592.121 656.052Z"/><path fill="#2E323F" d="M824.124 66.9271C826.766 67.9164 833.732 72.0235 836.461 73.5824L857.553 85.7167C850.526 88.9919 843.07 93.7414 836.265 97.6358C823.703 104.766 811.178 111.964 798.692 119.229C780.776 129.526 762.946 139.972 745.203 150.565C735.103 156.561 723.985 162.929 714.247 169.377C702.637 162.952 691.089 156.417 679.604 149.772C690.324 143.916 700.661 137.667 711.278 131.659L824.124 66.9271Z"/><path fill="#2E323F" d="M219.415 816.929C221.969 816.929 247.15 831.468 251.21 833.949C244.669 838.156 237.382 842.051 230.617 845.975C201.791 862.697 173.3 880.473 144.123 896.55C133.537 891.171 122.669 884.92 111.995 879.351C119.1 874.539 130.382 868.516 138.031 863.951C165.003 847.851 192.316 832.872 219.415 816.929Z"/><path fill="#2E323F" d="M521.593 852.341C522.354 854.578 522.047 861.269 521.559 863.674C519.781 872.494 512.241 878.995 505.152 883.653C476.484 902.49 404.223 903.214 384.413 870.956C381.628 864.972 382.023 859.442 382.025 852.993C385.183 856.253 388.638 859.591 392.39 862.193C425.609 885.232 494.152 884.966 521.593 852.341Z"/><path fill="#2E323F" d="M381.809 828.244C383.302 829.929 384.847 831.568 386.441 833.157C417.889 864.042 491.18 860.838 521.999 829.203C522.069 835.663 522.573 839.533 519.99 845.578C506.867 866.866 471.826 873.787 448.751 873.126C428.668 872.55 403.107 866.804 388.076 852.372C381.299 845.865 381.551 836.867 381.809 828.244Z"/><path fill="#2E323F" d="M768.783 583.87C769.99 596.754 768.612 602.13 758.782 610.753C726.428 639.133 661.457 635.341 633.204 603.027C630.918 598.827 631.778 588.988 631.927 583.953C653.58 611.426 704.251 616.235 735.233 605.851C749.936 600.923 758.678 595.304 768.783 583.87Z"/><path fill="#2E323F" d="M510.556 672.823C513.629 675.359 516.406 680.025 520.356 683.011C553.908 708.37 622.818 705.967 650.245 672.952C650.149 678.739 650.413 683.316 648.665 688.894C647.334 691.196 644.416 695.533 642.392 697.317C610.505 725.427 549.219 726.07 517.314 697.71C509.47 690.738 510.443 682.174 510.556 672.823Z"/><path fill="#2E323F" d="M381.655 805.239C382.987 806 385.325 808.497 386.562 809.657C419.392 840.438 492.145 838.241 522.029 805.419C522.082 811.242 522.761 816.738 520.463 822.018C507.822 841.746 473.874 849.711 451.946 849.584C431.189 849.463 404.607 844.314 389.111 829.226C381.558 821.873 381.601 814.978 381.655 805.239Z"/><path fill="#2E323F" d="M768.742 535.857C777.068 576.807 704.086 588.008 677.178 579.291C660.604 573.922 644.021 569.858 634.19 554.21C631.189 548.959 631.954 542.184 632.042 536.127C658.064 568.078 719.562 569.85 753.626 550.273C760.164 546.516 764.399 541.914 768.742 535.857Z"/><path fill="#2E323F" d="M649.868 720.39C649.899 720.833 649.925 721.277 649.948 721.721C650.371 730.325 649.914 735.892 643.61 742.519C629.668 757.174 602.738 764.326 583.243 764.827C555.699 765.534 531.397 759.258 511.14 740.351C510.665 737.57 510.945 725.029 510.971 721.755C527.254 740.497 557.161 746.882 581.032 746.895C605.596 746.909 632.346 738.184 649.868 720.39Z"/><path fill="#2E323F" d="M649.817 696.373C650.22 699.864 650.221 710.667 648.476 713.213C622.315 751.361 536.819 749.872 512.71 716.187C510.058 711.183 510.838 703.792 510.954 698.046C514.239 701.79 518.017 705.071 522.185 707.799C544.477 722.669 575.343 726.457 601.437 721.737C616.508 719.011 640.861 709.787 649.817 696.373Z"/><path fill="#2E323F" d="M632.11 558.919C633.792 560.648 636.46 566.118 639.662 568.436C643.549 571.251 647.166 573.382 651.459 575.532C669.639 584.707 690.008 588.655 710.299 586.938C732.82 585.119 754.002 577.607 768.901 560.1C768.93 565.412 769.598 572.172 767.415 576.822C765.204 580.208 762.614 583.332 759.696 586.133C731.188 613.625 666.69 611.566 638.328 583.928C630.623 576.419 631.794 568.603 632.11 558.919Z"/><path fill="#2E323F" d="M511.005 650.897C527.919 670.398 554.469 676.395 579.485 676.904C605.458 677.433 631.06 669.8 650.014 651.456C650.047 657.202 650.756 662.693 648.137 667.689C634.871 686.033 603.718 695.015 582.005 695.046C559.839 695.077 534.852 690.485 518.171 674.705C510.151 667.118 510.989 660.863 511.005 650.897Z"/><path fill="#2E323F" d="M768.359 511.837C769.193 514.604 769.062 523.401 768.104 525.973C755.776 559.04 700.457 561.493 671.973 554.266C656.79 550.413 641.29 542.75 633.773 529.767L633.566 529.219C631.754 524.541 632.392 517.465 632.486 512.242C636.739 517.816 640.242 521.737 646.205 525.579C677.655 545.845 746.37 547.126 768.359 511.837Z"/><path fill="#2E323F" d="M381.644 780.403C384.735 784.273 388.06 789.063 392.234 791.996C413.674 807.062 446.365 811.44 471.686 807.599C485.516 805.501 505.323 798.587 515.848 788.971C518.235 786.79 520.566 783.575 522.483 780.972C522.571 786.958 523.042 791.292 521.187 797.044C501.238 833.602 416.971 834.203 389.483 805.874C381.166 797.301 381.602 791.095 381.644 780.403Z"/><path fill="#2E323F" d="M649.865 766.433C651.604 769.907 649.733 780.792 647.612 784.051C639.776 796.093 621.758 804.134 608.504 807.664C582.942 814.474 551.311 812.206 528.21 798.849L527.393 798.135C526.639 795.658 527.014 784.252 527.069 780.84C542.48 790.199 566.23 793.894 584.002 793.166C608.546 792.16 632.695 784.604 649.865 766.433Z"/><path fill="#2E323F" d="M649.804 743.356C651.205 747.058 649.8 756.558 647.793 759.812C640.18 772.156 623.768 779.934 610.417 783.771C588.313 790.082 564.818 789.568 543.011 782.297C539.237 781.029 527.805 777.392 526.848 773.624C526.862 766.453 526.52 762.781 524.258 756.122C537.803 765.789 563.68 770.502 580.216 770.007C607.098 769.202 630.766 762.674 649.804 743.356Z"/><path fill="#2E323F" d="M649.324 790.422C650.68 793.11 648.753 803.703 647.367 806.455C641.974 817.166 627.91 825.112 616.956 828.594C588.131 837.756 554.993 836.099 527.694 822.899C526.435 821.535 527.005 807.547 527.032 804.466C544.312 813.01 563.447 817.114 582.711 816.409C607.047 815.739 632.192 808.479 649.324 790.422Z"/><path fill="#2E323F" d="M769.205 725.877C773.959 752.743 745.325 765.988 723.92 770.498C699.932 775.553 676.853 772.117 654.71 762.525C654.47 757.385 654.861 749.241 654.957 743.897C675.481 752.499 692.581 755.831 714.994 752.95C735.009 750.377 756.495 742.207 769.205 725.877Z"/><path fill="#2E323F" d="M768.356 656.389C768.71 660.759 768.524 665.958 768.478 670.403C760.563 683.422 749.505 690.424 735.243 695.355C709.088 704.206 680.5 702.401 655.667 690.331C654.517 689.062 654.97 674.292 654.98 671.459C672.968 678.891 688.989 682.557 708.733 681.511C729.567 680.407 754.12 672.314 768.356 656.389Z"/><path fill="#2E323F" d="M768.3 679.923L768.533 680.168C769.485 682.816 768.903 693.103 767.3 695.461C743.292 730.783 689.353 730.68 656.214 714.942L655.351 714.439C654.222 711.974 654.905 699.414 654.991 696.017C690.595 711.301 740.911 710.554 768.3 679.923Z"/><path fill="#2E323F" d="M768.377 703.391C772.264 724.823 752.304 736.745 734.961 743.163C709.949 752.419 679.353 749.776 655.258 738.658C654.94 736.9 655.047 723.084 655.039 720.408C673.855 728.814 694.605 731.939 715.063 729.448C733.751 727.029 756.491 718.828 768.377 703.391Z"/><path fill="#2E323F" d="M768.322 631.945L768.756 632.736C768.594 638.507 768.95 644.288 766.284 649.424C760.661 660.258 744.986 668.285 733.876 671.81C708.815 679.761 679.097 677.616 655.708 665.656C654.524 663.274 655.021 651.21 655.056 647.871C674.785 656.155 691.374 660.134 713.05 657.871C733.435 655.742 755.022 648.304 768.322 631.945Z"/><path fill="#2E323F" d="M768.272 608.923C768.631 609.298 768.696 609.263 768.697 609.796C768.705 616.653 769.35 622.646 764.748 628.152C752.947 642.27 733.313 650.146 715.608 652.352C698.938 654.549 681.314 652.973 665.649 646.68C662.745 645.513 655.817 643.909 655.571 640.616C655.062 633.358 654.409 629.768 651.608 623.129C685.965 642.743 740.516 638.692 768.272 608.923Z"/><path fill="#2E323F" d="M108.91 883.751C118.636 889.859 131.534 896.662 141.795 902.191L141.762 933.373C130.763 927.18 119.291 921.128 108.608 914.466C108.563 905.711 108.132 892.259 108.91 883.751Z"/><path fill="#2DF8CE" d="M403.158 178.958C406.573 179.346 435.719 196.198 438.826 198.722C438.999 201.773 438.82 205.359 438.762 208.44C438.346 230.864 438.641 253.35 437.343 275.745C434.438 324.043 424.497 371.658 407.836 417.085C399.532 439.229 391.987 455.059 381.788 476.022C365.18 510.13 346.071 542.963 324.618 574.251C315.032 588.132 294.053 617.8 282.367 628.219C259.468 627.17 234.673 619.553 214.224 609.526C201.241 603.159 187.832 596.727 175.528 589.143C164.426 582.749 154.339 574.736 145.599 565.369C103.614 520.784 100.499 451.384 100.432 393.428C100.273 374.153 100.483 354.876 101.062 335.608C103.856 332.805 112.801 327.131 116.458 324.605C126.206 317.929 135.786 311.01 145.188 303.856C176.275 279.728 205.27 252.452 230.876 222.506C237.311 214.98 243.145 206.69 249.088 198.756C299.953 202.017 355.119 196.546 403.158 178.958Z"/><path fill="#2E323F" d="M432.16 204.526L432.471 204.681C433.824 207.098 431.996 266.987 431.641 273.892C428.885 322.291 418.904 370.006 402.03 415.452C395.655 432.543 388.337 448.697 380.644 465.194C364.197 500.11 345.232 533.782 323.898 565.944C314.251 580.346 292.862 610.988 280.331 622.28C255.495 620.564 226.547 611.176 206.399 596.652C197.843 590.485 191.422 584.214 184.336 576.623C177.911 569.944 172.351 559.859 167.735 551.719C146.327 513.974 141.105 465.131 139.447 422.466C138.684 402.822 139.89 379.62 140.081 359.569C141.698 358.214 143.597 357.061 145.312 355.811C157.795 346.717 170.694 337.983 182.99 328.649C204.306 312.687 224.519 295.304 243.493 276.619C251.11 269 284.33 233.941 287.535 226.453C294.254 227.426 302.171 227.571 308.986 227.759C348.569 228.857 395.543 219.364 432.16 204.526Z"/><path fill="#FEF9E8" d="M416.107 225.499C417.403 225.476 416.95 225.396 418.125 225.89C419.917 228.337 418.739 233.747 418.675 236.869L418.378 259.078C417.754 287.067 415.64 317.601 410.224 345.205C397.611 409.489 371.503 471.475 337.25 527.151C321.05 553.482 304.998 577.529 284.338 600.528C252.016 601.553 217.861 583.145 196.65 559.526C152.102 510.623 153.818 425.079 154.609 363.279C195.533 337.93 224.657 312.148 257.967 277.206C264.381 270.392 270.679 263.468 276.856 256.438C280.511 252.263 285.021 246.727 288.84 242.992L289.332 242.515C333.572 252.265 374.547 239.739 416.107 225.499Z"/><path fill="#2E323F" d="M413.182 232.017L413.442 232.102C414.971 234.709 412.664 284.89 412.233 290.995C410.807 311.931 407.997 332.751 403.82 353.316C386.604 434.744 344.236 517.313 293.042 582.893C289.891 586.929 286.022 592.195 282.214 595.507C280.707 595.565 279.412 595.534 277.917 595.4C245.831 592.537 219.118 578.224 198.366 553.983C157.094 501.563 158.061 429.941 159.474 366.468C181.574 352.253 203.57 335.973 223.045 318.255C247.254 296.23 269.179 272.851 290.66 248.194C333.49 256.541 372.83 246.017 413.182 232.017Z"/><path fill="#FEF9E8" d="M403.933 242.96C409.223 243.108 407.168 250.522 407.388 254.085C407.512 256.084 407.188 258.536 407.187 260.596C407.132 368.47 364.918 472.888 302.999 559.881C297.872 567.084 287.038 583.561 279.81 587.972C249.853 584.794 224.851 572.807 204.843 550.055L204.532 549.711C195.565 539.634 190.863 530.995 185.219 519.125C168.046 483.009 165.381 443.06 165.44 403.66C165.457 392.775 165.301 380.744 165.951 369.884C169.628 367.084 177.017 362.682 181.246 359.815C190.04 353.781 198.62 347.441 206.971 340.807C226.56 325.226 246.821 305.84 264.186 287.876C273.138 278.616 282.105 266.885 290.919 257.13C299.187 257.971 309.736 259.032 317.986 259C341.95 258.909 382.573 252.795 403.933 242.96Z"/><path fill="#2E323F" d="M401.814 249.556L402.277 250.255C402.694 258.33 402 270.17 401.756 278.656C398.784 382.206 352.699 485.834 291.401 568.033C291.884 549.272 292.077 530.506 291.979 511.739C291.99 504.786 292.241 497.736 291.862 490.811C291.774 489.193 290.434 488.009 288.787 488.313C287.454 489.852 286.962 492.483 287 494.474C287.516 521.208 287.471 548.09 286.056 574.803L286.115 574.788C285.133 576.552 281.979 580.092 280.515 581.823L280.907 523.345C280.942 516.969 282.523 498.391 278.999 494.332L278.126 494.333C274.997 498.297 276.184 516.752 276.138 523.022L275.82 578.625C275.845 580.2 276.038 580.365 275.192 581.615C273.185 582.317 265.384 580.434 262.997 579.882C241.183 574.875 221.617 562.845 207.303 545.641C177.901 510.2 170.104 457.878 170.197 413.375C170.222 401.299 169.809 384.744 170.959 372.78C179.867 365.806 191.573 358.747 201.337 351.355C229.045 330.472 254.401 306.641 276.96 280.28C276.976 288.473 275.784 331.454 277.173 336.608L278.124 336.857C281.749 335.693 288.929 329.394 291.185 326.324C291.781 305.418 290.916 283.967 291.65 263.103C299.992 263.031 309.964 264.569 318.413 264.419C343.862 263.967 378.153 258.298 401.814 249.556Z"/><path fill="#FEF9E8" d="M306.176 340.663C314.305 339.715 322.776 340.506 329.06 345.902C359.378 371.934 337.083 426.806 316.837 451.686C302.849 468.876 285.756 483.828 264.121 486.427C243.977 489.131 229.2 477.66 226.048 457.422C218.931 411.721 259.485 348.007 306.176 340.663Z"/><path fill="#2E323F" d="M310.403 344.713C328.004 344.904 337.306 358.62 339 374.711C341.908 402.335 330.126 428.8 313.47 450.193C299.447 468.205 282.745 479.726 259.861 482.515C240.102 482.602 230.925 468.774 229.713 450.791C227.703 421.745 241.627 394.205 260.05 372.621C268.306 362.947 279.262 354.629 290.859 349.424C297.573 346.411 303.153 345.212 310.403 344.713Z"/><path fill="#2DF8CE" d="M284.581 366.22C286.374 366.619 285.652 366.206 286.917 367.328C287.911 369.523 287.586 371.868 287.53 374.354C291.777 373.434 296.08 372.217 300.18 374.057C302.622 375.173 304.485 377.262 305.314 379.816C306.496 383.399 305.562 387.664 301.58 388.873C299.286 387.462 298.121 382.631 296.26 381.078C294.904 379.947 289.399 380.651 287.484 380.811C287.187 389.613 287.48 400.073 287.495 409.006C302.604 405.795 311.58 404.191 308.588 425.267C306.98 436.59 298.061 444.888 288.94 451.103C288.997 454.705 289.923 459.722 287.374 462.297C285.604 463.155 285.168 462.919 283.239 462.588C281.78 460.043 282.048 457.301 282.051 454.424C277.812 455.505 275.965 456.003 271.465 455.686C263.859 455.151 258.293 442.715 265.44 438.653C272.504 438.226 263.25 450.433 282.636 448.156C283.134 439.813 282.784 427.251 282.819 418.458C267.108 421.936 258.704 418.477 262.685 400.525C265.173 389.302 272.113 383.22 281.503 377.363C281.38 372.543 280.446 369.36 284.581 366.22Z"/><path fill="#2E323F" d="M295.85 415.199C300.903 414.726 303.118 417.706 302.82 422.583C302.327 430.632 298.912 435.58 293.245 440.891C291.764 442.107 289.761 443.426 288.16 444.546C287.783 435.685 287.97 425.483 287.919 416.521C290.747 415.871 292.981 415.582 295.85 415.199Z"/><path fill="#2E323F" d="M281.335 383.927C282.624 385.728 282.033 406.901 282.01 410.77C277.392 411.468 274.926 412.191 270.417 410.849C263.563 401.379 273.559 389.367 281.335 383.927Z"/><path fill="#2E323F" d="M285.595 270.317C287.048 274.507 286.472 318.209 286.477 325.045L281.548 329.499C281.489 329.321 281.43 329.142 281.371 328.963C281.392 311.602 281.077 293.298 282.416 276.027C282.509 274.82 285.038 271.151 285.595 270.317Z"/><path fill="#2E323F" d="M251.91 205.245C253.842 206.276 259.59 210.384 261.829 211.886C268.531 216.38 274.62 220.342 281.669 224.293C273.253 235.821 263.099 246.595 253.363 256.997C239.777 271.77 225.445 285.838 210.422 299.146C188.965 317.838 163.321 336.057 139.796 352.079L138.429 352.73C134.271 351.959 114.903 338.759 110.438 335.828C122.584 328.347 135.492 318.479 146.899 309.742C187.741 278.459 221.177 246.328 251.91 205.245Z"/><path fill="#2E323F" d="M106.52 340.811C114.624 345.517 127.195 353.182 134.176 358.696C134.145 359.234 134.117 359.773 134.095 360.313C131.604 427.857 132.68 529.544 181.433 582.292L179.629 584.496C111.869 546.411 106.912 468.78 106.151 399.408C105.835 379.875 105.958 360.338 106.52 340.811Z"/><path fill="#2E323F" d="M402.711 186.023C406.629 186.739 424.187 196.692 428.549 199.209C384.786 216.996 337.456 224.248 290.376 220.382C283.701 219.72 270.4 209.353 263.053 205.34C300.34 205.854 335.196 203.725 371.639 194.971C382.291 192.413 392.267 189.257 402.711 186.023Z"/><path fill="#212B2B" d="M181.433 582.292C183.636 584.481 185.872 586.637 188.141 588.759C184.598 587.245 182.912 586.468 179.629 584.496L181.433 582.292Z"/><path fill="#2DF8CE" d="M919.787 834.647C921.116 834.48 922.68 834.179 923.697 835.666C925.255 837.945 925.384 841.261 925.399 844.075C925.428 849.428 925.393 855.133 925.115 860.511C925.007 862.589 924.415 864.875 923.563 866.765C921.486 871.37 918.644 875.578 916.441 880.12C910.003 891.543 890.06 937.027 882.385 943.437C880.867 943.976 878.705 943.534 877.276 942.899C864.894 937.398 853.087 930.612 840.514 925.473C832.295 929.024 822.701 934.426 814.687 938.712C799.776 946.599 784.989 954.718 770.331 963.067C762.506 967.467 750.11 974.83 742.266 978.146C737.643 976.074 728.186 970.205 723.449 967.441C718.05 964.214 705.71 957.913 701.509 954.331C701.463 951.328 701.058 938.4 701.82 936.454C703.702 931.652 723.604 922.104 728.129 919.526L778.102 891.146C773.443 888.712 768.469 887.309 764.459 884.48C764.098 880.236 763.906 864.874 765.235 860.492C766.033 859.39 770.185 858.43 771.33 858.232C820.64 849.701 870.574 843.502 919.787 834.647Z"/><path fill="#2E323F" d="M912.326 841.686C912.967 841.555 916.349 841.413 917.153 841.365C913.949 848.766 910.691 856.36 906.998 863.528C897.66 881.65 889.137 900.236 879.434 918.161C868.061 912.342 851.679 903.091 840.589 898.265C832.359 902.656 824.386 907.662 816.208 912.18L742.204 953.145C736.565 949.014 726.829 943.369 720.748 939.602C718.247 938.201 714.905 935.964 712.399 934.399C741.104 919.416 768.857 901.536 797.796 886.93C800.725 885.451 803.645 883.683 803.311 880.235C800.393 876.841 778.473 866.16 772.916 863.269C776.912 862.222 785.551 861.126 789.885 860.46L822.058 855.58C852.115 850.745 882.205 846.114 912.326 841.686Z"/><path fill="#2E323F" d="M839.389 905.978C840.424 907.864 839.638 915.883 839.487 918.598C833.96 922.63 813.593 932.937 806.747 936.64L746.383 970.036L746.052 969.733C745.547 968.107 745.87 959.702 745.905 957.479C752.544 953.361 764.264 947.375 771.562 943.305C793.835 930.881 816.753 917.526 839.389 905.978Z"/><path fill="#2E323F" d="M844.288 906.538C851.879 909.29 869.505 919.342 877.568 923.534L877.53 936.82C868.335 932.858 853.267 925.216 844.495 920.257L844.288 906.538Z"/><path fill="#2E323F" d="M706.659 938.642C716.48 943.023 730.883 952.124 740.47 957.874L740.49 971.055C730.021 964.577 716.175 957.958 706.553 951.237C706.558 947.038 706.593 942.84 706.659 938.642Z"/><path fill="#2E323F" d="M919.315 850.432C919.824 851.033 919.967 859.42 920.045 861.058C910.806 878.576 902.157 896.816 893.506 914.623C890.486 920.841 886.798 926.846 883.672 933.165L883.46 933.261L883.008 932.795C882.928 929.999 882.714 927.061 883.7 924.452C887.228 915.114 892.679 905.158 897.152 896.217C904.708 881.038 912.096 865.775 919.315 850.432Z"/><path fill="#2E323F" d="M770.005 868.218C776.392 870.865 789.246 877.842 795.045 881.5L790.442 884.264C788.174 885.541 785.635 886.735 783.29 887.898C779.673 885.629 773.562 882.804 769.6 880.828C770.018 876.791 769.961 872.309 770.005 868.218Z"/><path fill="#2DF8CE" d="M135.993 674.65C137.361 674.757 138.335 675.041 138.741 676.504C141.758 687.392 143.528 709.64 158.754 710.027C161.1 710.087 164.571 710.299 165.331 712.76C164.111 714.899 159.954 719.543 158.077 721.7C151.944 728.749 148.294 736.972 145.542 745.903C143.816 751.518 142.532 757.259 141.7 763.073C141.133 767.211 141.041 774.091 138.537 777.232C137.664 777.122 136.962 776.978 136.099 776.812C133.588 772.251 133.934 755.688 128.289 748.419C122.351 740.77 110.626 741.028 108.898 737.895C110.452 734.399 116.294 729.761 118.936 726.395C122.242 722.183 124.757 716.805 126.802 711.878C129.071 706.427 130.824 700.776 132.039 694.999C133.179 689.361 133.444 678.932 135.993 674.65Z"/><path fill="#2E323F" d="M137.306 696.371C138.146 697.207 142.898 706.578 144.692 708.749C148.294 713.107 149.994 714.826 155.72 715.759C146.865 725.503 139.538 743.128 137.767 756.106C136.845 755.053 133.947 747.078 133.071 745.145C130.347 739.129 124.859 736.987 119.094 734.815C129.827 722.332 133.331 712.084 137.306 696.371Z"/><path fill="#2DF8CE" d="M932.602 494.875C934.161 494.932 935.173 494.781 936.427 495.665C938.732 505.493 939.403 519.889 951.79 524.27C953.889 525.012 960.209 525.765 961.335 527.069C963.702 529.811 952.178 537.588 951.026 540.216C942.651 551.316 937.116 565.963 935.95 579.797C935.624 583.654 935.275 584.943 932.402 587.297C931.856 586.954 931.309 586.61 930.763 586.266C928.966 582.526 928.961 576.159 927.461 571.834C923.774 561.203 922.589 557.979 911.065 554.709C908.536 553.992 905.946 553.417 903.673 552.187C903.085 549.859 913.138 543.511 915.351 540.764C917.61 537.962 918.21 537.255 920.171 534.022C925.237 525.504 928.815 516.186 930.75 506.466C931.56 502.443 930.862 498.016 932.602 494.875Z"/><path fill="#2E323F" d="M934.527 512.805C940.898 521.416 938.174 526.191 951.312 530.736C940.167 545.631 938.006 549.583 932.73 567.404L932.072 567.648C929.006 558.543 924.067 552.063 914.485 549.203C925.073 539.65 930.798 526.333 934.527 512.805Z"/></svg>