<?xml version="1.0" encoding="utf-8" ?><svg xmlns="http://www.w3.org/2000/svg" xmlns:xlink="http://www.w3.org/1999/xlink" width="1024" height="1024" viewBox="0 0 1024 1024"><path fill="#403053" d="M0 0L1024 0L1024 1024L0 1024L0 349.769L0 345.781L0 0Z"/><path fill="#FDFDFE" d="M468.541 101.82C475.813 98.3036 485.427 92.5426 492.843 88.56L557.284 53.5733C567.773 47.8561 578.236 41.7185 589.021 36.6204C594.899 33.7228 603.863 32.0067 609.843 35.0926C617.397 38.9905 637.525 49.013 640.617 56.6462C642.617 61.5841 641.888 80.9351 641.873 86.842L641.911 89.8245L642.201 387.782L642.113 473.365L642.129 498.343C642.146 510.612 643.164 520.773 633.155 529.81C624.887 537.273 612.321 542.666 602.404 547.961L567.101 567.023L436.062 638.612L436.164 674.791C450.03 682.466 463.693 690.593 477.333 698.667C487.666 704.783 499.518 710.932 509.342 717.737L509.485 727.878C501.789 732.728 492.409 737.627 484.317 742.065L439.887 766.282L404.697 785.761C398.111 789.391 390.199 793.96 383.431 796.991C368.58 788.963 353.355 778.978 338.262 770.731C326.39 764.244 313.434 756.7 301.929 749.595C299.399 748.032 294.811 744.299 294.046 741.406C292.184 734.364 292.984 725.043 292.954 717.559C269.311 730.062 245.478 743.942 222.061 756.966L148.32 797.196L111.651 817.145C105.213 820.73 98.2226 825 91.7909 828.123C85.5106 831.173 76.2298 825.568 71.1571 821.922C63.876 816.688 54.1424 812.509 49.0788 804.976C47.907 803.233 47.5108 796.631 47.5007 794.337C47.4725 769.734 47.5376 745.102 47.5333 720.505L47.5758 561.391L47.4984 430.86C47.5164 408.896 47.4454 386.735 47.718 364.937C47.8863 351.471 49.004 334.008 61.0437 325.634C70.7103 318.91 83.4972 312.759 94.0433 307.117L145.593 278.988L366.44 157.47L437.269 118.898L458.038 107.537C460.175 106.368 465.969 103.381 467.818 102.096L468.541 101.82Z"/><path fill="#403053" d="M626.621 52.5244C635.024 52.241 637.967 58.6453 637.902 66.1224C637.698 89.6999 637.634 113.275 637.695 136.854L637.931 341.361L638.034 454.132C638.055 472.282 638.247 490.67 638.062 508.825C637.801 511.423 637.579 516.135 636.567 518.464C631.068 531.117 615.444 536.461 603.936 542.752L543.312 575.62L337.374 688.377C277.477 721.924 217.397 755.141 157.135 788.028C143.394 795.359 129.712 802.804 116.093 810.36C109.253 814.164 96.2596 821.849 89.3579 824.668C85.0755 825.408 82.0165 823.484 78.4974 821.4C78.1387 798.282 78.3685 774.527 78.2777 751.347L78.2405 538.308L78.1366 427.271C78.1197 408.255 77.9785 388.954 78.3071 369.931C78.3851 365.414 80.077 359.43 82.2829 355.443C85.2815 350.147 89.589 345.708 94.7934 342.552C106.543 335.521 122.059 327.935 134.413 321.206C158.455 307.82 182.572 294.568 206.761 281.45L399.572 175.385L541.773 96.8796L588.91 70.776C599.517 64.9633 615.535 55.6556 626.621 52.5244Z"/><path fill="#FDFDFE" d="M624.297 75.1019C626.381 76.0311 627.48 78.1925 627.508 80.4111C627.702 95.6924 627.549 110.991 627.516 126.277L627.452 214.015L627.567 488.662C615.204 495.948 600.162 503.511 587.328 510.43L507.031 553.573L308.906 661.106L162.616 741.9L121.06 764.749C111.506 770.075 98.9204 777.439 89.1188 781.976C88.4286 770.246 89.1285 750.323 89.1543 737.807L89.0742 653.867L88.6162 374.076C88.6077 373.302 88.6049 372.528 88.6076 371.754C88.5972 369.994 88.3518 369.085 89.305 367.612C90.9265 367.158 90.1358 367.149 91.7607 367.667C93.7358 370.043 92.6362 375.643 92.6667 378.782L92.7269 489.765L93.0898 775.571C99.4204 772.646 107.799 767.683 114.03 764.226L152.058 743.182L287.365 668.599C399.071 607.201 511.18 546.539 623.686 486.617L623.398 194.428L623.523 115.011C623.534 106.35 623.019 82.1863 624.297 75.1019Z"/><path fill="#63FAD9" d="M247.06 646.992C257.194 641.782 267.891 635.576 277.965 630.07L340.411 595.904L487.228 515.186C510.256 502.377 533.364 489.712 556.551 477.192C566.25 471.953 586.354 461.728 594.977 456.074L596.135 456.13C597.348 457.647 596.986 456.812 597.275 458.72C595.945 460.457 594.203 461.38 592.29 462.436L358.192 590.6L286.829 629.502C274.996 636.015 260.445 644.908 248.545 650.57C246.74 651.122 246.204 651.432 245.136 649.95C245.335 647.79 244.971 648.737 246.267 646.999L247.06 646.992Z"/><path fill="#14132C" d="M248.545 650.57C246.74 651.122 246.204 651.432 245.136 649.95C245.335 647.79 244.971 648.737 246.267 646.999L247.06 646.992L248.545 650.57Z"/><path fill="#49C9A0" d="M143.649 535.938C145.719 538.872 144.081 538.24 144.956 540.866C145.006 543.066 144.677 544.494 145.688 546.177C147.015 546.317 146.545 546.351 147.884 546.008L149.904 546.737L154.331 544.164C154.552 569.417 153.905 594.796 154.219 620.024C151.984 621.792 139.056 630.089 136.733 630.233C135.809 628.866 135.925 626.997 135.831 625.278C136.195 623.022 135.604 608.537 135.571 605.404L135.379 555.881L134.886 555.95L134.816 554.562C135.792 553.189 135.888 553.182 136.39 551.507C137.982 550.245 140.989 548.663 142.848 547.608C143.362 543.554 143.485 540.032 143.649 535.938Z"/><path fill="#21053F" d="M143.649 535.938C145.719 538.872 144.081 538.24 144.956 540.866C145.006 543.066 144.677 544.494 145.688 546.177C147.015 546.317 146.545 546.351 147.884 546.008L149.904 546.737C145.263 549.929 138.822 552.162 135.379 555.881L134.886 555.95L134.816 554.562C135.792 553.189 135.888 553.182 136.39 551.507C137.982 550.245 140.989 548.663 142.848 547.608C143.362 543.554 143.485 540.032 143.649 535.938Z"/><path fill="#49C9A0" d="M478.946 177.553C482.224 174.815 494.309 167.737 498.742 165.879C500.045 165.333 500.954 165.971 501.977 166.518C502.466 170.86 502.965 223.623 501.925 225.914L500.731 226.927C499.63 227.795 498.631 228.586 497.571 229.514C497.038 231.185 496.708 232.97 495.594 234.158L495.065 233.483C494.428 232.569 494.853 232.906 493.765 232.504L492.154 233.61C490.544 233.194 490.67 233.169 489.576 231.88C488.955 232.257 487.173 233.259 486.764 233.7C485.044 237.273 483.82 237.315 480.15 238.859C478.701 224.018 479.858 208.033 479.899 193.12C479.907 189.81 478.65 179.632 478.946 177.553Z"/><path fill="#14132C" d="M480.15 238.859C478.701 224.018 479.858 208.033 479.899 193.12C479.907 189.81 478.65 179.632 478.946 177.553L480.7 179.302C481.261 197.548 479.797 218.796 480.864 236.565L486.764 233.7C485.044 237.273 483.82 237.315 480.15 238.859Z"/><path fill="#2B195D" d="M478.946 177.553C482.224 174.815 494.309 167.737 498.742 165.879C500.045 165.333 500.954 165.971 501.977 166.518L501.491 167.967C499.618 167.628 483.157 177.494 480.7 179.302L478.946 177.553Z"/><path fill="#14132C" d="M501.977 166.518C502.466 170.86 502.965 223.623 501.925 225.914L500.731 226.927L500.669 225.44C500.906 225.045 501.144 224.651 501.382 224.256C501.831 207.126 501.042 184.521 501.491 167.967L501.977 166.518Z"/><path fill="#2B195D" d="M489.576 231.88C493.131 229.726 496.978 227.276 500.669 225.44L500.731 226.927C499.63 227.795 498.631 228.586 497.571 229.514C497.038 231.185 496.708 232.97 495.594 234.158L495.065 233.483C494.428 232.569 494.853 232.906 493.765 232.504L492.154 233.61C490.544 233.194 490.67 233.169 489.576 231.88Z"/><path fill="#49C9A0" d="M425.006 360.438L425.395 359.73C426.8 361.958 425.904 375.666 425.942 379.138C426.209 380.538 426.469 388.292 426.282 389.742C425.671 394.502 427.886 424.318 425.622 426.304C419.085 430.606 413.205 434.364 406.134 437.811C404.789 416.096 406.362 391.135 405.465 369.061C407.341 368.908 416.108 364.206 418.427 363.034C420.764 361.645 422.317 360.557 425.006 360.438Z"/><path fill="#2B195D" d="M425.07 373.361L425.942 379.138C426.209 380.538 426.469 388.292 426.282 389.742C425.671 394.502 427.886 424.318 425.622 426.304C424.661 423.285 425.031 379.409 425.07 373.361Z"/><path fill="#040B13" d="M425.006 360.438L425.395 359.73C426.8 361.958 425.904 375.666 425.942 379.138L425.07 373.361C424.994 369.054 424.973 364.746 425.006 360.438Z"/><path fill="#49C9A0" d="M520.853 173.81L521.525 172.454L522.129 172.373C523.063 176.06 520.787 179.357 523.33 181.925C526.437 181.784 527.685 178.252 531.068 178.477C531.804 179.366 531.892 180.021 531.978 181.152C532.197 184.025 532.25 186.924 532.249 189.82C532.242 204.396 532.015 218.974 532.042 233.549C532.043 234.156 531.857 234.874 531.727 235.462L531.071 235.248C529.521 238.026 522.461 240.686 519.535 242.685L519.855 243.994C518.807 246.473 514.152 249.762 511.021 248.31C508.875 245.546 509.707 238.992 510.039 235.385C508.989 224.738 509.456 207.997 509.472 197.003C509.183 194.799 509.037 192.427 508.853 190.198C510.972 188.611 515.613 184.583 518.017 185.128L518.324 185.038C517.819 183.12 517.382 177.266 518.247 175.334C518.827 174.041 519.521 174.175 520.853 173.81Z"/><path fill="#14132C" d="M520.853 173.81L521.525 172.454L522.129 172.373C523.063 176.06 520.787 179.357 523.33 181.925C526.437 181.784 527.685 178.252 531.068 178.477C531.804 179.366 531.892 180.021 531.978 181.152C532.197 184.025 532.25 186.924 532.249 189.82C532.242 204.396 532.015 218.974 532.042 233.549C532.043 234.156 531.857 234.874 531.727 235.462L531.071 235.248C531.071 216.972 530.914 198.696 530.601 180.422C526.737 182.424 522.24 185.274 518.446 187.544C517.93 186.076 517.976 186.629 518.017 185.128L518.324 185.038C517.819 183.12 517.382 177.266 518.247 175.334C518.827 174.041 519.521 174.175 520.853 173.81Z"/><path fill="#A6FAED" d="M518.324 185.038C517.819 183.12 517.382 177.266 518.247 175.334C518.827 174.041 519.521 174.175 520.853 173.81C520.939 176.869 521.338 180.896 520.5 183.695C519.535 184.649 519.609 184.589 518.324 185.038Z"/><path fill="#14132C" d="M509.472 197.003L510.7 197.014C510.69 204.903 511.102 218.455 510.612 225.897C510.496 227.641 510.27 234.29 510.039 235.385C508.989 224.738 509.456 207.997 509.472 197.003Z"/><path fill="#21053F" d="M510.612 225.897C510.962 233.006 510.56 240.081 510.918 247.035L519.535 242.685L519.855 243.994C518.807 246.473 514.152 249.762 511.021 248.31C508.875 245.546 509.707 238.992 510.039 235.385C510.27 234.29 510.496 227.641 510.612 225.897Z"/><defs><linearGradient id="gradient_0" gradientUnits="userSpaceOnUse" x1="514.32629" y1="192.45697" x2="511.83038" y2="188.49849"><stop offset="0" stop-color="#14222D"/><stop offset="1" stop-color="#241843"/></linearGradient></defs><path fill="url(#gradient_0)" d="M508.853 190.198C510.972 188.611 515.613 184.583 518.017 185.128C517.976 186.629 517.93 186.076 518.446 187.544C515.889 189.07 513.545 190.47 510.897 191.843L510.7 197.014L509.472 197.003C509.183 194.799 509.037 192.427 508.853 190.198Z"/><path fill="#49C9A0" d="M198.099 514.678L198.51 515.004C198.99 514.392 199.03 507.835 199.355 505.728C199.329 508.61 198.969 512.61 199.872 515.139C201.061 515.592 200.478 515.487 201.604 515.523L202.359 517.117C204.382 515.87 206.448 514.557 208.5 513.371L208.508 579.991C206.172 581.377 194.921 587.501 193.927 588.893C194.24 589.391 194.073 589.028 194.01 590.087C191.371 591.623 189.534 590.624 187.696 588.643C187.17 585.573 186.66 576.883 188.26 574.26L188.978 574.817C188.934 559.469 189.129 543.358 188.713 528.073L189.064 525.849L187.196 526.54C186.917 520.962 196.57 521.931 198.099 514.678Z"/><path fill="#21053F" d="M198.099 514.678L198.51 515.004C198.99 514.392 199.03 507.835 199.355 505.728C199.329 508.61 198.969 512.61 199.872 515.139C201.061 515.592 200.478 515.487 201.604 515.523L202.359 517.117C198.752 519.513 192.621 523.832 189.064 525.849L187.196 526.54C186.917 520.962 196.57 521.931 198.099 514.678Z"/><path fill="#2B195D" d="M187.696 588.643C187.17 585.573 186.66 576.883 188.26 574.26L188.978 574.817C188.961 576.815 189.032 579.724 188.905 581.64L188.229 582.004C187.817 584.745 187.94 586.171 187.696 588.643Z"/><path fill="#040B13" d="M187.696 588.643C187.94 586.171 187.817 584.745 188.229 582.004L188.905 581.64C188.884 583.949 188.604 586.709 189.471 588.737C191.271 590.123 191.897 589.655 193.927 588.893C194.24 589.391 194.073 589.028 194.01 590.087C191.371 591.623 189.534 590.624 187.696 588.643Z"/><path fill="#49C9A0" d="M307.728 353.912C307.496 360.769 307.221 371.383 307.645 378.074L307.709 377.555C308.055 374.614 308.14 371.79 308.262 368.836C308.558 372.844 308.639 376.344 308.689 380.369C311.41 378.235 312.997 377.107 315.939 375.298C316.374 381.939 317.58 429.752 315.923 432.664L315.581 434.717C313.446 437.468 300.431 444.165 296.544 446.295C295.758 428.597 296.404 407.636 296.38 389.634L300.536 386.356L300.729 385.424C302.379 384.026 302.463 383.874 303.664 382.039C302.126 382.652 296.563 387.185 294.663 388.168C294.716 388.141 293.762 390.239 293.629 390.519L293.297 388.958C294.641 385.152 303.596 384.876 303.557 375.824C303.54 371.714 303.456 361.343 304.107 357.52C304.363 357.772 304.453 368.49 304.559 369.918L304.612 370.562C304.926 366.854 304.98 359.814 304.8 356.188C305.566 355.512 306.879 354.568 307.728 353.912Z"/><path fill="#14132C" d="M307.728 353.912C307.496 360.769 307.221 371.383 307.645 378.074L307.709 377.555C308.055 374.614 308.14 371.79 308.262 368.836C308.558 372.844 308.639 376.344 308.689 380.369C311.41 378.235 312.997 377.107 315.939 375.298C316.374 381.939 317.58 429.752 315.923 432.664C315.22 429.882 315.422 418.106 315.416 414.768L315.347 377.949C311.614 379.533 304.23 384.143 300.536 386.356L300.729 385.424C302.379 384.026 302.463 383.874 303.664 382.039C302.126 382.652 296.563 387.185 294.663 388.168C294.716 388.141 293.762 390.239 293.629 390.519L293.297 388.958C294.641 385.152 303.596 384.876 303.557 375.824C303.54 371.714 303.456 361.343 304.107 357.52C304.363 357.772 304.453 368.49 304.559 369.918L304.612 370.562C304.926 366.854 304.98 359.814 304.8 356.188C305.566 355.512 306.879 354.568 307.728 353.912Z"/><path fill="#63FAD9" d="M307.728 353.912C307.496 360.769 307.221 371.383 307.645 378.074C307.378 379.232 307.051 379.612 306.476 380.666L305.769 380.692C304.274 378.598 304.628 373.282 304.612 370.562C304.926 366.854 304.98 359.814 304.8 356.188C305.566 355.512 306.879 354.568 307.728 353.912Z"/><path fill="#63FAD9" d="M594.304 425.428C595.716 425.723 596.075 426.186 596.71 427.114L596.52 428.054C593.256 431.795 543.104 457.955 535.017 462.405C464.311 501.839 393.203 540.55 321.706 578.532L320.277 578.942C319.206 577.815 319.635 578.464 319.343 576.734C320.315 573.954 333.75 567.57 337.261 565.671L388.371 538.482L517.885 467.356C543.112 453.496 569.413 439.803 594.304 425.428Z"/><path fill="#49C9A0" d="M358.732 303.083C360.732 301.601 357.772 302.633 360.061 300.198C360.178 303.12 359.883 307.159 360.622 309.598C361.552 309.895 361.065 309.889 362.08 309.515C363.791 310.086 362.978 309.652 364.342 311.335C366.757 309.893 369.107 308.365 371.748 307.403C371.826 326.159 371.736 344.915 371.479 363.669C367.733 365.923 356.913 372.918 353.366 373.408C351.252 371.87 351.904 359.681 351.917 356.679L352.037 331.044C352.032 328.518 352.087 321.027 351.588 318.794C350.241 315.518 355.569 313.265 358.098 311.678C358.363 308.882 358.53 305.899 358.732 303.083Z"/><path fill="#21053F" d="M358.732 303.083C360.732 301.601 357.772 302.633 360.061 300.198C360.178 303.12 359.883 307.159 360.622 309.598C361.552 309.895 361.065 309.889 362.08 309.515C363.791 310.086 362.978 309.652 364.342 311.335C360.963 313.376 354.147 316.859 351.588 318.794C350.241 315.518 355.569 313.265 358.098 311.678C358.363 308.882 358.53 305.899 358.732 303.083Z"/><path fill="#F96D8B" d="M380.077 333.14C386.137 329.544 391.902 325.611 398.008 322.087C398.619 328.894 398.392 338.739 398.414 345.707L398.511 384.089C392.097 387.073 385.462 392.165 380.413 394.392C380.407 373.974 380.295 353.557 380.077 333.14Z"/><path fill="#F96D8B" d="M120.979 623.355C123.093 622.041 125.22 620.749 127.361 619.479C127.4 621.655 127.359 625.95 127.56 627.959C130.141 638.531 128.024 656.39 129.222 667.931C129.417 670.073 129.57 671.931 129.626 674.081C127.473 675.494 124.973 676.688 123.682 678.739C123.567 679.698 123.436 680.655 123.364 681.617L121.75 680.205L120.579 680.304L119.799 680.562C118.436 680.519 119.023 680.767 117.937 680.056L119.109 677.622C116.836 679.068 114.021 681.259 111.556 681.653C110.794 681.139 110.753 681.168 110.115 680.52C110.706 677.552 110.483 666.531 110.436 663.203C110.303 653.712 110.356 643.784 109.992 634.312C109.341 633.494 109.431 632.394 108.721 630.734C108.605 632.031 108.536 632.826 108.295 634.121C108.283 630.643 107.208 630.191 107.115 628.339C108.734 627.016 113.713 625.652 115.747 626.694L116.285 626.48C117.966 625.45 119.362 624.486 120.979 623.355Z"/><path fill="#14132C" d="M127.56 627.959C130.141 638.531 128.024 656.39 129.222 667.931L128.669 670.172L127.697 670.474C127.062 657.611 127.522 640.989 127.56 627.959Z"/><path fill="#21053F" d="M129.222 667.931C129.417 670.073 129.57 671.931 129.626 674.081C127.473 675.494 124.973 676.688 123.682 678.739C123.567 679.698 123.436 680.655 123.364 681.617L121.75 680.205L120.579 680.304L119.799 680.562C118.436 680.519 119.023 680.767 117.937 680.056L119.109 677.622C121.684 675.973 124.94 674.8 127.183 672.911C127.976 672.243 127.663 671.958 127.697 670.474L128.669 670.172L129.222 667.931Z"/><path fill="#2B195D" d="M109.992 634.312C109.341 633.494 109.431 632.394 108.721 630.734C108.605 632.031 108.536 632.826 108.295 634.121C108.283 630.643 107.208 630.191 107.115 628.339C108.734 627.016 113.713 625.652 115.747 626.694C113.628 627.889 111.482 628.754 110.28 630.752C110.055 632.282 110.023 632.821 109.992 634.312Z"/><path fill="#F96D8B" d="M431.851 306.278C437.749 303.057 443.601 299.753 449.407 296.368C450.874 307.458 449.53 323.244 449.995 334.662C450.155 338.59 449.681 345.035 450.485 348.694L451 348.136C451.718 349.663 451.561 348.861 451.333 350.651C448.554 353.192 446.064 354.915 444.438 358.211L444.003 359.085C443.908 359.286 443.813 359.488 443.718 359.689C443.181 357.154 442.977 357.602 440.697 356.609C440.491 356.794 439.457 357.688 439.329 357.876C438.71 357.398 439.12 357.635 438.001 357.376L436.654 358.426C435.46 360.587 433.567 362.042 431.103 360.798L431.23 359.982L432.014 359.708C432.064 341.898 432.01 324.088 431.851 306.278Z"/><path fill="#2B195D" d="M450.485 348.694L451 348.136C451.718 349.663 451.561 348.861 451.333 350.651C448.554 353.192 446.064 354.915 444.438 358.211L444.003 359.085C443.908 359.286 443.813 359.488 443.718 359.689C443.181 357.154 442.977 357.602 440.697 356.609C440.491 356.794 439.457 357.688 439.329 357.876C438.71 357.398 439.12 357.635 438.001 357.376L436.654 358.426L435.98 357.353C439.186 355.501 447.975 350.768 450.485 348.694Z"/><path fill="#21053F" d="M432.014 359.708L435.98 357.353L436.654 358.426C435.46 360.587 433.567 362.042 431.103 360.798L431.23 359.982L432.014 359.708Z"/><path fill="#F96D8B" d="M335.615 357.082L336.288 355.713C336.759 357.454 336.61 358.901 336.581 360.704C338.759 359.457 341.232 357.957 343.45 356.851L343.518 389.425C343.52 394.266 343.275 402.47 343.672 407.097C339.906 408.214 330.011 413.812 327.422 416.871L328.288 417.147L327.977 417.497L328.638 417.909L328.488 419.288C327.242 420.889 327.269 420.788 325.399 421.678C321.685 421.057 323.643 410.796 324.421 408.171C324.75 405.672 324.598 397.221 324.594 394.437L324.537 367.58L329.326 364.962L329.151 363.404C330.094 361.638 331.394 358.685 332.53 357.274C333.335 359.229 332.676 358.686 334.2 359.369C335.646 358.346 335.109 359.026 335.615 357.082Z"/><path fill="#2B195D" d="M335.615 357.082L336.288 355.713C336.759 357.454 336.61 358.901 336.581 360.704L329.326 364.962L329.151 363.404C330.094 361.638 331.394 358.685 332.53 357.274C333.335 359.229 332.676 358.686 334.2 359.369C335.646 358.346 335.109 359.026 335.615 357.082Z"/><path fill="#2B195D" d="M328.288 417.147L327.977 417.497L328.638 417.909L328.488 419.288C327.242 420.889 327.269 420.788 325.399 421.678C321.685 421.057 323.643 410.796 324.421 408.171C324.448 410.77 324.102 414.929 324.804 417.222L325.609 417.739L327.422 416.871L328.288 417.147Z"/><path fill="#F96D8B" d="M606.033 134.39L606.002 181.492L606.766 179.635C607.996 180.549 607.518 186.22 607.475 187.959C605 190.194 603.27 191.776 600.994 194.222L600.361 193.21L599.164 192.797L599.783 192.147L599.516 191.175C595.349 193.414 592.357 194.974 588.019 196.791C587.339 181.096 587.874 161.236 587.883 145.199C593.635 141.154 599.848 137.72 606.033 134.39Z"/><path fill="#2B195D" d="M606.002 181.492L606.766 179.635C607.996 180.549 607.518 186.22 607.475 187.959C605 190.194 603.27 191.776 600.994 194.222L600.361 193.21L599.164 192.797L599.783 192.147L599.516 191.175C600.162 190.614 605.014 187.682 606.015 187.061L606.002 181.492Z"/><path fill="#49C9A0" d="M260.38 446.387C261.069 446.517 260.684 446.382 261.46 446.96C262.171 460.548 262.033 482.22 261.726 495.897C256.019 499.869 249.992 503.359 243.706 506.333L243.162 506.32C241.691 504.29 242.51 463.713 242.516 457.405C248.081 453.77 254.595 450.054 260.38 446.387Z"/><path fill="#49C9A0" d="M456.56 255.355C460.241 252.438 470.773 246.619 475.468 243.753L475.486 290.517L470.749 293.618L465.658 296.637C462.757 298.34 459.859 299.564 456.793 300.935C455.927 288.612 456.556 268.26 456.56 255.355Z"/><path fill="#F96D8B" d="M267.278 440.913C271.809 437.291 280.363 431.332 285.762 428.677C286.925 428.105 288.399 428.514 289.547 429.256L289.602 430.117L288.675 430.411C288.055 435.324 288.138 466.408 288.673 472.045C290.174 471.905 290.601 471.674 291.847 472.454C291.456 476.885 282.793 475.656 281.939 481.497L281.64 481.831C281.244 481.202 281.546 481.532 280.516 481.101L278.383 482.303C278.183 480.929 278.73 479.735 279.157 478.375C276.924 479.624 273.209 481.83 270.962 482.758C269.495 479.874 271.114 447.368 270.099 440.684L269.665 443.773C268.52 442.842 268.157 442.123 267.278 440.913Z"/><path fill="#2B195D" d="M267.278 440.913C271.809 437.291 280.363 431.332 285.762 428.677C286.925 428.105 288.399 428.514 289.547 429.256L289.602 430.117L288.675 430.411C285.87 430.887 273.553 438.799 270.099 440.684L269.665 443.773C268.52 442.842 268.157 442.123 267.278 440.913Z"/><path fill="#2B195D" d="M288.673 472.045C290.174 471.905 290.601 471.674 291.847 472.454C291.456 476.885 282.793 475.656 281.939 481.497L281.64 481.831C281.244 481.202 281.546 481.532 280.516 481.101L278.383 482.303C278.183 480.929 278.73 479.735 279.157 478.375C281.974 476.609 286.261 474.095 288.673 472.045Z"/><path fill="#F96D8B" d="M175.567 586.916C177.429 585.934 179.658 584.676 181.568 583.889C181.555 591.268 181.275 600.541 181.602 607.764C182.057 604.563 181.642 592.656 182.528 591.079C182.963 600.734 182.575 610.614 183.025 620.313L183.279 618.975C183.442 622.69 184.302 627.081 181.074 629.596C178.793 630.632 178.696 630.893 176.982 632.829L175.938 633.07C173.785 634.218 173.437 634.24 173.234 636.855L172.97 636.764C172.667 635.132 172.341 633.646 171.968 632.028C169.016 633.975 166.99 635.331 163.825 636.919C162.403 629.278 163.595 604.3 163.322 595.062C163.289 593.955 165.069 593.009 166.107 592.242C168.781 590.96 172.876 588.452 175.567 586.916Z"/><path fill="#2B195D" d="M181.602 607.764C182.057 604.563 181.642 592.656 182.528 591.079C182.963 600.734 182.575 610.614 183.025 620.313L183.279 618.975C183.442 622.69 184.302 627.081 181.074 629.596L181.674 626.213C181.531 620.065 181.507 613.914 181.602 607.764Z"/><path fill="#21053F" d="M171.968 632.028C175.316 629.86 178.19 628.166 181.674 626.213L181.074 629.596C178.793 630.632 178.696 630.893 176.982 632.829L175.938 633.07C173.785 634.218 173.437 634.24 173.234 636.855L172.97 636.764C172.667 635.132 172.341 633.646 171.968 632.028Z"/><path fill="#49C9A0" d="M550.223 232.87L555.551 230.135C555.886 244.039 556.018 257.946 555.945 271.853L548.986 276.203L543.578 279.716L536.496 284.062C536.255 269.726 536.719 255.196 536.309 240.922C536.217 240.052 542.678 234.812 543.953 232.953L545.032 232.968C547.127 232.669 546.146 233.019 547.989 231.643L548.474 231.414L550.223 232.87Z"/><path fill="#14132C" d="M547.989 231.643L548.474 231.414L550.223 232.87C547.291 234.692 539.11 239.929 536.309 240.922C536.217 240.052 542.678 234.812 543.953 232.953L545.032 232.968C547.127 232.669 546.146 233.019 547.989 231.643Z"/><path fill="#F96D8B" d="M232.732 506.939C233.178 506.992 232.873 506.919 233.5 507.48C233.832 522.357 233.62 538.383 233.519 553.327C229.284 556.512 221.987 560.248 217.16 562.71C215.835 560.911 216.253 522.933 216.219 516.751C220.752 513.653 227.867 509.766 232.732 506.939Z"/><path fill="#63FAD9" d="M183.752 317.547C204.412 316.347 194.413 346.229 177.499 353.038C159.051 357.073 163.54 326.659 183.752 317.547Z"/><path fill="#403053" d="M183.774 322.013C198.393 321.745 189.676 345.166 176.675 349.068C162.33 347.802 171.944 326.177 183.774 322.013Z"/><path fill="#63FAD9" d="M142.114 339.541C162.666 337.129 153.723 367.937 136.712 374.491C117.444 377.839 123.971 346.993 142.114 339.541Z"/><path fill="#403053" d="M142.17 343.466C157.146 343.254 148.89 364.682 136.837 370.307C121.26 371.007 130.541 348.814 142.17 343.466Z"/><path fill="#63FAD9" d="M224.105 295.079C244.899 293.05 235.762 323.753 218.999 329.648C200.63 332.94 205.071 303.832 224.105 295.079Z"/><path fill="#403053" d="M223.665 299.545C232.353 298.807 233.903 304.381 231.447 311.75C229.475 317.651 225.198 322.502 219.591 325.2C204.637 327.027 211.532 305.556 223.665 299.545Z"/><path fill="#F96D8B" d="M579.702 190.233L579.487 189.65C580.778 188.972 580.113 189.022 581.476 189.237C582.417 192.847 582.016 215.712 581.995 220.862C578.474 222.895 574.707 224.391 572.818 227.863C568.758 230.763 569.819 234.228 569.997 238.859C567.944 235.462 570.509 230.732 569.013 226.806C567.897 227.351 564.008 230.186 562.773 231.047C561.362 222.949 562.336 210.843 561.804 202.084C563.02 200.897 571.722 195.518 573.767 194.22C575.737 192.973 577.762 191.547 579.702 190.233Z"/><path fill="#21053F" d="M579.702 190.233L579.487 189.65C580.778 188.972 580.113 189.022 581.476 189.237C582.417 192.847 582.016 215.712 581.995 220.862C578.474 222.895 574.707 224.391 572.818 227.863C568.758 230.763 569.819 234.228 569.997 238.859C567.944 235.462 570.509 230.732 569.013 226.806C572.353 224.569 577.123 222.131 580.796 219.907C580.755 215.852 581.455 192.323 579.702 190.233Z"/><path fill="#63FAD9" d="M398.511 384.089C398.977 385.912 398.987 385.033 398.522 386.826C393.771 391.723 394.032 387.85 392.097 396.777L392.062 397.292C391.664 403.772 393.123 440.614 390.446 443.06C387.52 439.648 389.554 422.974 388.927 416.781C388.261 412.896 387.962 410.131 387.778 406.249C387.58 402.082 388.253 395.354 387.21 391.606C384.634 393.106 383.502 394.418 380.561 395.297C381.646 395.659 385.208 394.285 387.146 393.966L387.377 394.424C385.607 395.446 381.828 396.358 379.827 395.813L379.577 395.084L380.413 394.392C385.462 392.165 392.097 387.073 398.511 384.089Z"/><path fill="#2B195D" d="M398.511 384.089C398.977 385.912 398.987 385.033 398.522 386.826C393.771 391.723 394.032 387.85 392.097 396.777C391.978 394.901 392.252 393.185 391.185 392.118C389.746 392.319 390.304 391.96 389.388 393.061C388.439 398.097 389.194 410.965 388.927 416.781C388.261 412.896 387.962 410.131 387.778 406.249C387.58 402.082 388.253 395.354 387.21 391.606C384.634 393.106 383.502 394.418 380.561 395.297C381.646 395.659 385.208 394.285 387.146 393.966L387.377 394.424C385.607 395.446 381.828 396.358 379.827 395.813L379.577 395.084L380.413 394.392C385.462 392.165 392.097 387.073 398.511 384.089Z"/><path fill="#63FAD9" d="M198.099 514.678C197.414 502.307 198.448 488.907 197.852 476.429C197.722 473.702 198.258 471.551 199.705 469.257C201.367 468.384 200.499 468.491 202.412 469.078L202.616 469.585L201.812 469.532C202.173 474.527 202.428 511.857 201.604 515.523C200.478 515.487 201.061 515.592 199.872 515.139C198.969 512.61 199.329 508.61 199.355 505.728C199.03 507.835 198.99 514.392 198.51 515.004L198.099 514.678Z"/><path fill="#14132C" d="M198.099 514.678C197.414 502.307 198.448 488.907 197.852 476.429C197.722 473.702 198.258 471.551 199.705 469.257C201.367 468.384 200.499 468.491 202.412 469.078L202.616 469.585L201.812 469.532C200.012 471.005 199.664 471.053 199.455 473.781C198.698 483.699 199.962 495.985 199.355 505.728C199.03 507.835 198.99 514.392 198.51 515.004L198.099 514.678Z"/><path fill="#63FAD9" d="M225.549 462.85C225.755 459.123 225.543 457.986 227.031 454.642L227.423 454.562C228.178 458.758 228.604 503.055 227.726 506.884C226.639 507.628 226.608 507.718 225.374 508.118L224.728 507.908C223.51 505.524 224.709 466.563 225.549 462.85Z"/><path fill="#14132C" d="M225.549 462.85C225.589 477.327 225.844 493.765 225.374 508.118L224.728 507.908C223.51 505.524 224.709 466.563 225.549 462.85Z"/><path fill="#A6FAED" d="M570.02 191.874C569.838 186.575 569.648 167.45 570.215 163.262C571.392 162.119 571.111 162.496 573.291 162.407C575.096 171.27 573.69 184.614 573.767 194.22C571.722 195.518 563.02 200.897 561.804 202.084L561.206 202.461C559.673 202.46 560.436 202.571 558.883 201.398C558.826 197.924 564.394 198.002 567.75 194.497C568.028 193.198 567.974 192.852 568.699 191.775L570.02 191.874Z"/><path fill="#2B195D" d="M573.291 162.407C575.096 171.27 573.69 184.614 573.767 194.22C571.722 195.518 563.02 200.897 561.804 202.084L561.206 202.461C559.673 202.46 560.436 202.571 558.883 201.398C558.826 197.924 564.394 198.002 567.75 194.497C568.028 193.198 567.974 192.852 568.699 191.775L570.02 191.874C571.373 192.356 570.69 192.28 572.114 191.863C574.04 189.044 572.213 168.352 573.291 162.407Z"/><path fill="#63FAD9" d="M279.157 478.375C278.73 479.735 278.183 480.929 278.383 482.303L280.516 481.101C281.546 481.532 281.244 481.202 281.64 481.831L281.589 482.449C280.594 495.739 281.869 509.955 281.415 523.325C281.37 524.647 281.066 524.847 280.314 525.745L279.341 525.679C277.52 522.825 279.103 510.367 278.547 505.348C277.061 502.049 277.439 487.57 277.444 483.074C275.382 483.576 272.444 484.52 270.623 483.53L270.962 482.758C273.209 481.83 276.924 479.624 279.157 478.375Z"/><path fill="#21053F" d="M279.157 478.375C278.73 479.735 278.183 480.929 278.383 482.303C279.054 487.694 278.658 499.573 278.547 505.348C277.061 502.049 277.439 487.57 277.444 483.074C275.382 483.576 272.444 484.52 270.623 483.53L270.962 482.758C273.209 481.83 276.924 479.624 279.157 478.375Z"/><path fill="#63FAD9" d="M143.649 535.938C143.864 526.822 143.48 517.668 143.626 508.556C143.664 506.229 143.908 503.931 145.83 502.51C147.656 502.491 146.842 502.267 148.384 503.125L148.571 504L147.668 504.524C147.656 515.809 147.091 535.392 147.884 546.008C146.545 546.351 147.015 546.317 145.688 546.177C144.677 544.494 145.006 543.066 144.956 540.866C144.081 538.24 145.719 538.872 143.649 535.938Z"/><path fill="#14132C" d="M143.649 535.938C143.864 526.822 143.48 517.668 143.626 508.556C143.664 506.229 143.908 503.931 145.83 502.51C147.656 502.491 146.842 502.267 148.384 503.125L148.571 504L147.668 504.524C146.331 505.234 145.363 505.388 145.192 506.999C144.132 517.022 145.727 531.13 144.956 540.866C144.081 538.24 145.719 538.872 143.649 535.938Z"/><path fill="#63FAD9" d="M119.109 677.622L117.937 680.056C119.023 680.767 118.436 680.519 119.799 680.562L120.579 680.304L121.128 680.473C121.115 691.213 120.732 705.042 121.224 715.54L121.198 716.193C119.973 717.41 119.265 718.565 117.478 718.246C116.854 713.317 119.031 686.509 117.264 683.422C114.83 683.335 113.043 686.622 111.184 685.13C109.714 683.951 108.569 682.08 110.115 680.52C110.753 681.168 110.794 681.139 111.556 681.653C114.021 681.259 116.836 679.068 119.109 677.622Z"/><path fill="#2B195D" d="M119.109 677.622L117.937 680.056C119.023 680.767 118.436 680.519 119.799 680.562C117.911 682.835 118.52 691.014 118.519 694.143C118.516 701.002 118.265 708.194 118.675 715.022L119.277 715.751L121.224 715.54L121.198 716.193C119.973 717.41 119.265 718.565 117.478 718.246C116.854 713.317 119.031 686.509 117.264 683.422C114.83 683.335 113.043 686.622 111.184 685.13C109.714 683.951 108.569 682.08 110.115 680.52C110.753 681.168 110.794 681.139 111.556 681.653C114.021 681.259 116.836 679.068 119.109 677.622Z"/><path fill="#14132C" d="M154.219 620.024L154.825 618.878C155.65 619.846 155.305 619.308 155.231 621.133C153.157 623.463 149.88 625.46 148.935 627.707L147.852 627.994C148.056 632.86 148.812 646.711 146.799 650.434L147.122 651.042C145.969 651.999 146.619 651.723 145.082 651.847L144.191 651.035C143.532 649.054 143.897 632.07 143.894 628.959C140.629 630.695 139.871 631.431 136.26 631.101C134.869 630.185 135.384 630.789 134.75 629.157C134.913 627.286 134.842 626.925 135.831 625.278C135.925 626.997 135.809 628.866 136.733 630.233C139.056 630.089 151.984 621.792 154.219 620.024Z"/><path fill="#A6FAED" d="M147.852 627.994C148.056 632.86 148.812 646.711 146.799 650.434L145.883 649.931C144.719 647.779 145.18 633.952 145.54 630.772C145.739 629.012 146.548 628.857 147.852 627.994Z"/><path fill="#A6FAED" d="M572.818 227.863C573.352 231.95 573.536 271.688 572.771 273.876C571.485 275.034 572.195 274.805 570.654 274.814C569.362 272.456 570.059 243.815 569.997 238.859C569.819 234.228 568.758 230.763 572.818 227.863Z"/><path fill="#63FAD9" d="M118.466 610.08C117.757 606.089 116.942 597.552 118.809 593.966C120.357 593.054 119.502 593.315 121.534 593.476C123.253 595.555 121.659 608.561 121.926 611.916C122.362 617.385 124.595 618.728 120.979 623.355C119.362 624.486 117.966 625.45 116.285 626.48C116.23 624.346 117.858 616.323 118.434 614.169C118.522 613.393 118.466 610.982 118.466 610.08Z"/><path fill="#14132C" d="M118.466 610.08C117.757 606.089 116.942 597.552 118.809 593.966C120.357 593.054 119.502 593.315 121.534 593.476C123.253 595.555 121.659 608.561 121.926 611.916C122.362 617.385 124.595 618.728 120.979 623.355C119.362 624.486 117.966 625.45 116.285 626.48C116.23 624.346 117.858 616.323 118.434 614.169C118.476 616.01 118.285 618.553 119.002 620.059L119.937 619.926C122.124 617.629 121.902 596.038 120.427 593.902L120.7 593.789L120.912 594.193L120.312 594.008C117.577 597.505 118.496 605.668 118.466 610.08Z"/><path fill="#14132C" d="M327.422 416.871C330.011 413.812 339.906 408.214 343.672 407.097C342.703 409.612 340.516 410.745 338.222 412.221C337.885 413.74 337.554 416.252 336.577 417.253C335.698 416.73 336.097 417.068 335.614 415.918C335.583 419.35 335.286 430.611 335.981 433.419L336.318 433.609C336.666 434.976 336.678 434.265 335.799 435.78C333.95 436.872 334.886 436.689 332.976 436.672C329.35 433.741 333.602 422.035 330.65 415.926L329.911 415.782L328.288 417.147L327.422 416.871Z"/><path fill="#63FAD9" d="M335.981 433.419C334.743 434.113 334.76 434.25 333.379 434.259C332.465 431.751 332.455 415.971 334.332 414.431L335.132 414.706L335.614 415.918C335.583 419.35 335.286 430.611 335.981 433.419Z"/><path fill="#21053F" d="M170.007 587.571C169.934 581.753 169.331 565.836 170.763 561.009C172.609 559.226 174.16 559.311 175.69 561.451L175.411 562.422L174.318 562.971C173.788 566.448 173.604 581.051 174.196 584.247C175.049 585.436 174.843 585.897 175.567 586.916C172.876 588.452 168.781 590.96 166.107 592.242C167.179 589.459 167.78 589.451 170.007 587.571Z"/><path fill="#63FAD9" d="M174.196 584.247C173.346 584.875 173.159 584.903 172.196 585.369L171.471 584.978C170.745 579.817 170.946 570.801 171.229 565.401C171.317 563.728 171.701 563.447 172.712 562.699L174.318 562.971C173.788 566.448 173.604 581.051 174.196 584.247Z"/><path fill="#14132C" d="M414.501 339.09L413.631 338.596C414.92 337.689 414.182 337.989 416.034 338.026C420.423 341.663 415.908 358.595 418.427 363.034C416.108 364.206 407.341 368.908 405.465 369.061C406.47 364.888 410.603 367.467 412.576 361.487L413.514 361.109C414.906 355.749 412.914 344.473 414.501 339.09Z"/><path fill="#63FAD9" d="M414.501 339.09L416.079 339.688C416.953 342.461 417.168 358.338 416.025 361.448C415.768 362.148 415.673 361.958 414.76 362.214C414.267 361.816 413.904 361.59 413.514 361.109C414.906 355.749 412.914 344.473 414.501 339.09Z"/><path fill="#14132C" d="M197.019 606.622C198.159 600.512 196.882 594.464 197.474 588.708C197.576 587.723 201.944 587.024 203.529 587.772C201.628 590.763 202.934 602.725 203.514 606.746C201.72 608.403 201.088 609.226 198.737 609.299C197.176 607.955 197.807 608.759 197.019 606.622Z"/><path fill="#63FAD9" d="M198.866 606.397C198.684 600.926 198.71 595.451 198.944 589.982C199.722 588.687 199.165 589.043 200.489 588.664C202.109 590.79 201.399 602.362 201.401 605.719L198.866 606.397Z"/><defs><linearGradient id="gradient_1" gradientUnits="userSpaceOnUse" x1="198.0817" y1="606.37848" x2="200.61093" y2="608.07874"><stop offset="0" stop-color="#181A2C"/><stop offset="1" stop-color="#261635"/></linearGradient></defs><path fill="url(#gradient_1)" d="M198.866 606.397L201.401 605.719L203.514 606.746C201.72 608.403 201.088 609.226 198.737 609.299C197.176 607.955 197.807 608.759 197.019 606.622L198.866 606.397Z"/><path fill="#63FAD9" d="M358.732 303.083C359.03 299.891 358.535 284.374 360.091 282.693C360.676 282.061 361.939 281.542 362.779 281.511C363.513 281.484 363.785 281.996 364.291 282.452C365.498 285.955 364.559 289.456 363.903 293.08L363.082 290.684C363.075 296.064 362.916 302.371 363.183 307.665C362.772 308.476 362.674 308.894 362.08 309.515C361.065 309.889 361.552 309.895 360.622 309.598C359.883 307.159 360.178 303.12 360.061 300.198C357.772 302.633 360.732 301.601 358.732 303.083Z"/><path fill="#2B195D" d="M358.732 303.083C359.03 299.891 358.535 284.374 360.091 282.693C360.676 282.061 361.939 281.542 362.779 281.511C363.513 281.484 363.785 281.996 364.291 282.452C365.498 285.955 364.559 289.456 363.903 293.08L363.082 290.684C363.078 288.944 363.273 285.57 362.632 284.138C358.844 284.861 360.476 296.542 360.061 300.198C357.772 302.633 360.732 301.601 358.732 303.083Z"/><path fill="#63FAD9" d="M332.385 321.826C333.43 319.784 333.661 319.751 335.733 319.367C335.255 329.848 335.348 346.402 335.615 357.082C335.109 359.026 335.646 358.346 334.2 359.369C332.676 358.686 333.335 359.229 332.53 357.274C333.399 354.232 333.267 324.682 332.385 321.826Z"/><path fill="#63FAD9" d="M250.775 427.667C252.169 427.088 252.599 426.595 253.761 426.885C254.127 430.885 254.818 444.402 253.361 447.639C252.213 448.43 252.282 448.504 250.925 448.654C250.769 449.309 250.925 448.969 250.313 449.595C250.252 444.991 248.572 431.179 250.775 427.667Z"/><path fill="#040B13" d="M250.925 448.654C250.769 449.309 250.925 448.969 250.313 449.595C250.252 444.991 248.572 431.179 250.775 427.667C251.278 433.722 251.049 442.458 250.925 448.654Z"/><path fill="#A6FAED" d="M467.138 214.747C468.91 213.802 468.748 213.48 470.283 213.784L470.694 214.472C469.377 219.04 470.917 236.232 469.913 242.594C469.008 243.888 469.613 243.444 467.937 243.823C466.881 241.844 467.558 219.84 467.191 215.34L467.138 214.747Z"/><path fill="#A6FAED" d="M439.329 357.876C439.457 357.688 440.491 356.794 440.697 356.609C442.977 357.602 443.181 357.154 443.718 359.689C443.332 362.692 443.341 363.569 443.543 366.601C444.702 370.291 444.908 371.418 442.145 374.293C440.429 374.905 441.209 374.973 439.713 374.317C437.946 371.89 439.197 361.902 439.329 357.876Z"/><path fill="#14132C" d="M439.329 357.876C439.457 357.688 440.491 356.794 440.697 356.609C440.609 359.681 439.94 370.065 441.547 372.165C443.599 371.168 443.37 368.679 443.543 366.601C444.702 370.291 444.908 371.418 442.145 374.293C440.429 374.905 441.209 374.973 439.713 374.317C437.946 371.89 439.197 361.902 439.329 357.876Z"/><path fill="#63FAD9" d="M543.578 279.716L548.986 276.203C548.775 278.363 549.217 279.54 546.918 280.364C548.448 283.039 547.556 291.482 547.599 294.993L547.702 295.407L546.964 296.431C545.231 297.101 546.012 297.181 544.534 296.662C542.838 293.619 543.849 284.417 543.607 280.163L543.578 279.716Z"/><path fill="#14132C" d="M543.578 279.716L548.986 276.203C548.775 278.363 549.217 279.54 546.918 280.364L545.522 281.005C544.6 283.744 544.255 292.629 545.7 295.16C546.864 295.256 546.45 295.301 547.599 294.993L547.702 295.407L546.964 296.431C545.231 297.101 546.012 297.181 544.534 296.662C542.838 293.619 543.849 284.417 543.607 280.163L543.578 279.716Z"/><path fill="#63FAD9" d="M390.189 297.149C391.259 297.582 390.777 297.276 391.497 298.277C391.799 302.246 392.189 321.824 390.751 324.605L389.473 323.915C388.358 321.101 388.521 299.8 390.189 297.149Z"/><path fill="#A6FAED" d="M544.738 210.543L547.918 210.493C547.549 214.105 547.322 228.438 547.989 231.643C546.146 233.019 547.127 232.669 545.032 232.968C544.401 226.679 544.938 217.355 544.738 210.543Z"/><path fill="#63FAD9" d="M175.938 633.07C176.092 636.392 176.682 653.611 175.279 655.363L174.334 655.731C172.344 653.714 173.5 640.583 173.234 636.855C173.437 634.24 173.785 634.218 175.938 633.07Z"/><path fill="#A6FAED" d="M492.154 233.61L493.765 232.504C494.853 232.906 494.428 232.569 495.065 233.483C495.062 236.199 495.179 243.894 494.525 246.405C494.763 247.194 494.731 246.73 494.312 247.784L493.063 248.005C489.909 246.349 489.046 240.029 490.87 237.265C491.527 236.271 491.301 236.715 491.198 235.495L491.908 234.862L492.154 233.61Z"/><path fill="#14132C" d="M491.908 234.862C491.956 238.153 491.294 244.04 492.969 246.118L494.525 246.405C494.763 247.194 494.731 246.73 494.312 247.784L493.063 248.005C489.909 246.349 489.046 240.029 490.87 237.265C491.527 236.271 491.301 236.715 491.198 235.495L491.908 234.862Z"/><path fill="#2B195D" d="M465.658 296.637L470.749 293.618L469.173 297.045C469.19 300.394 469.589 307.08 468.396 309.913L468.937 310.116L468.775 310.761C466.95 311.714 467.855 311.592 466.028 311.447C464.373 309.625 466.196 300.175 465.658 296.637Z"/><path fill="#63FAD9" d="M469.173 297.045C469.19 300.394 469.589 307.08 468.396 309.913L467.539 309.431C466.51 307.941 466.535 304.169 466.754 302.336C467.157 298.972 466.884 298.951 469.173 297.045Z"/><path fill="#14132C" d="M163.825 636.919C166.99 635.331 169.016 633.975 171.968 632.028C172.341 633.646 172.667 635.132 172.97 636.764C172.703 644.141 172.999 651.97 173.332 659.329L172.713 658.963C170.566 655.03 171.646 640.394 171.705 634.805C169.12 636.292 166.759 638.304 163.825 636.919Z"/><path fill="#63FAD9" d="M303.13 462.679C303.526 458.982 302.394 447.542 304.672 445.443L305.311 445.74C306.558 447.627 305.915 459.156 305.872 462.228L303.13 462.679Z"/><path fill="#2B195D" d="M363.183 307.665L363.343 307.251C363.898 305.794 364.018 305.582 364.153 303.972L364.208 304.528C364.357 305.929 364.265 306.647 365.167 307.688C367.724 306.511 370.793 304.972 373.427 304.131L372.554 310.233L372.249 310.379L371.748 307.403C369.107 308.365 366.757 309.893 364.342 311.335C362.978 309.652 363.791 310.086 362.08 309.515C362.674 308.894 362.772 308.476 363.183 307.665Z"/><path fill="#14132C" d="M467.138 214.747C466.424 221.623 466.856 236.04 466.876 243.218L466.515 243.474C465.899 240.473 465.631 216.545 466.966 213.303C468.346 212.033 468.282 211.958 470.163 211.422L471.488 211.692C472.185 212.965 472.039 212.284 471.644 213.829C471.421 213.994 470.921 214.407 470.694 214.472L470.283 213.784C468.748 213.48 468.91 213.802 467.138 214.747Z"/><path fill="#14132C" d="M305.872 462.228L306.271 462.921C305.179 463.963 305.267 464.067 303.816 464.306C301.05 462.247 301.656 449.492 302.784 447.508C302.85 449.829 302.834 461.236 303.13 462.679L305.872 462.228Z"/><path fill="#98FAEE" d="M600.994 194.222C601.011 196.221 601.111 199.333 600.532 201.161L599.702 200.518C598.606 198.25 597.861 194.687 600.361 193.21L600.994 194.222Z"/><path fill="#21053F" d="M136.39 551.507C135.888 553.182 135.792 553.189 134.816 554.562L134.886 555.95C135.122 561.404 134.927 568.315 134.832 573.792C134.454 568.215 133.905 562.208 133.924 556.655C133.934 553.535 134.464 553.269 136.39 551.507Z"/><path fill="#14132C" d="M544.738 210.543C545.367 208.531 546.839 208.308 548.757 207.929C549.839 209.237 549.136 211.9 548.834 213.521L548.218 213.454L548.167 212.851C548.093 212.069 548.001 211.275 547.918 210.493L544.738 210.543Z"/><path fill="#14132C" d="M187.196 526.54L189.064 525.849L188.713 528.073C188.339 529.038 188.29 541.48 188.246 543.488C187.585 538.953 187.516 531.438 187.196 526.54Z"/><path fill="#14132C" d="M332.385 321.826L332.298 322.511C331.557 321.344 331.668 321.236 331.494 319.829C332.13 318.087 331.611 318.805 333.217 317.682C335.492 317.461 334.502 317.218 336.347 318.136L336.537 319.022L335.733 319.367C333.661 319.751 333.43 319.784 332.385 321.826Z"/><path fill="#14132C" d="M304.8 356.188C304.355 353.984 305.598 352.755 307.662 352.319L308.502 353.12C309.248 355.175 308.602 357.191 308.214 359.439C308.21 356.922 308.237 356.332 307.728 353.912C306.879 354.568 305.566 355.512 304.8 356.188Z"/><path fill="#2B195D" d="M120.579 680.304L121.75 680.205L123.364 681.617L121.781 691.148C121.706 688.283 121.731 683.043 121.128 680.473L120.579 680.304Z"/><path fill="#403053" d="M599.679 37.589C609.332 37.0069 616.655 43.4525 624.796 48.5136C612.617 52.5682 603.112 58.1565 591.94 64.2771L553.298 85.7697L412.54 163.409L192.693 284.387L127.872 319.87C116.79 325.892 105.624 331.592 94.6313 337.789C83.8256 343.882 75.6843 353.89 74.6984 366.654C73.5102 382.035 74.0223 397.932 74.0383 413.427L74.2397 505.071L74.4935 816.625C74.4599 817.99 74.7437 817.516 73.9743 818.277C72.9936 818.007 66.0357 813.349 64.4163 812.507C60.1614 810.294 52.3772 805.463 51.9479 800.16C51.0456 789.013 51.5262 774.139 51.5372 762.914L51.6125 670.795L51.5346 469.812L51.5323 402.762C51.5562 387.976 51.4153 373.282 52.114 358.498C52.7603 344.822 55.1285 333.109 68.0593 325.896C80.0888 319.185 92.277 312.791 104.397 306.25L173.731 268.536L404.362 141.795L523.804 76.5155L559.789 56.9603C569.884 51.4683 589.947 39.4548 599.679 37.589Z"/><path fill="#403053" d="M434.526 678.991C439.627 680.808 450.351 687.599 455.355 690.405C470.736 699.031 486.972 709.995 502.581 717.855C486.829 725.66 470.204 735.099 454.817 743.669C431.847 756.507 408.764 769.144 385.571 781.578C385.367 781.659 384.074 781.838 383.81 781.879C380.69 780.646 374.838 776.89 371.588 774.953C365.206 771.157 358.797 767.407 352.361 763.703C345.493 759.732 323.008 747.764 318.322 743.929C322.14 741.382 328.448 738.019 332.557 735.69C342.56 730.051 352.604 724.486 362.689 718.995L434.526 678.991Z"/><path fill="#403053" d="M431.725 641.038L432.33 641.301C432.651 644.253 432.446 650.428 432.435 653.581L432.44 675.684C395.738 695.633 354.845 718.046 318.941 739.115L318.62 738.998C317.677 737.586 318.102 708.145 318.112 704.06C329.428 696.712 343.58 689.484 355.491 682.874L431.725 641.038Z"/><path fill="#2B195D" d="M313.398 706.475C314.673 707.91 313.573 740.034 314.651 746.152C318.619 749.95 337.677 760.262 343.637 763.64C356.7 771.004 369.644 778.576 382.466 786.353L382.417 791.836C379.687 789.931 375.997 787.808 373.096 786.035C359.068 777.911 344.996 769.864 330.879 761.894C321.749 756.732 307.59 749.567 299.762 742.857C295.489 739.194 296.738 722.489 296.803 715.923C301.695 712.845 308.261 709.374 313.398 706.475Z"/><path fill="#2B195D" d="M504.666 721.104C505.318 721.249 505.106 721.318 505.71 722.152C505.771 724.453 505.021 725.826 502.986 726.996C497.064 730.399 491.063 733.682 485.099 737.014C471.359 744.79 457.511 752.375 443.56 759.765C424.582 769.917 405.907 781.032 386.809 790.807C386.557 790.648 386.305 790.488 386.052 790.328C385.838 788.581 385.704 785.936 387.65 784.967C391.29 783.154 394.869 781.333 398.44 779.382L426.499 763.838L504.666 721.104Z"/><path fill="#21053F" d="M0 345.781C8.85515 338.837 21.521 324.141 29.2336 315.353C114.679 217.992 175.659 60.6919 322.369 45.6826C373.417 40.46 423.812 61.126 461.922 93.8399C464.086 95.6975 468.301 98.9258 468.541 101.82L467.818 102.096C464.996 101.301 457.249 93.0499 454.21 90.9295C447.482 86.2339 440.938 81.0859 434.021 76.6357C387.576 46.7008 329.924 39.8477 277.756 58.0601C149.808 102.588 95.2004 263.46 0 349.769L0 345.781Z"/><path fill="#21053F" d="M641.873 86.842C658.481 79.9577 679.881 84.5937 695.024 93.5119C712.605 104.77 728.672 122.055 743.229 136.704C771.839 165.494 808.806 185.025 849.265 167.492C882.129 153.251 911.771 120.057 936.24 94.2634C954.345 75.2735 972.215 56.0611 989.847 36.6307C996.897 28.7632 1014.27 7.23034 1021.96 2.98717C1017.64 10.7724 1002.77 26.368 996.384 33.7656C980.585 51.9286 963.573 69.4721 946.995 86.8692C925.559 109.363 904.1 133.379 879.829 152.694C848.9 177.306 810.006 186.272 774.683 164.847C763.245 157.91 753.522 150.843 743.973 141.481C729.908 128.584 716.17 113.013 701.348 101.152C686.949 89.6301 664.913 83.3953 646.719 88.3536C645.106 88.8082 643.503 89.2986 641.911 89.8245L641.873 86.842Z"/><path fill="#FDFDFE" d="M565.362 764.384C564.108 761.101 563.103 758.045 562.625 754.544C561.494 746.248 562.117 737.373 562.078 729.006C562.041 720.86 561.287 712.355 562.519 704.274C563.165 700.035 564.5 696.02 566.236 692.106C576.134 669.776 598.503 654.617 620.68 646.245C663.769 629.977 720.44 631.953 762.371 651.024C783.978 660.851 806.484 676.763 815.156 699.835C819.973 712.65 819.243 725.934 819.336 739.38C819.393 747.562 819.566 755.758 819.537 763.938C819.528 766.755 818.582 771.637 819.586 774.224C820.759 777.246 856.251 797.127 862.176 803.625C864.459 806.129 865.854 808.867 866.446 812.19L943.228 865.638L964.194 880.419C980.456 891.859 993.167 897.736 978.301 918.855L977.925 919.38C979.98 920.351 994.493 931.026 995.886 932.487C993.606 935.57 962.325 950.012 957.238 951.05C956.823 950.935 956.409 950.82 955.995 950.705C943.392 945.618 930.386 937.602 918.433 931.267C879.204 910.475 840.796 888.271 801.624 867.36C787.122 859.618 773.392 851.218 758.487 844.236C738.766 846.824 720.299 852.444 699.642 850.235C695.273 849.768 676.763 849.28 674.569 846.887C653.817 859.032 630.543 871.109 609.237 882.593L540.112 920.45C527.511 927.318 514.91 933.999 502.366 940.988C495.117 945.027 480.319 953.863 473.251 956.533C466.852 958.895 459.885 959.246 453.281 957.538C437.223 953.466 416.84 936.691 401.798 928.676C386.952 920.766 372.46 910.889 357.767 902.592C356.598 901.891 354.254 900.161 353.652 899.156C352.058 896.497 351.819 885.46 353.34 882.785C356.48 877.26 374.197 869.048 379.832 865.982C393.438 858.413 407.124 850.991 420.889 843.717L510.732 794.348C528.543 784.572 547.929 774.704 565.362 764.384Z"/><path fill="#21053F" d="M674.569 846.887C681.85 842.994 689.156 839.148 696.485 835.347C699.875 833.562 708.953 828.49 712.261 827.628C718.629 825.966 727.181 825.34 734.083 823.987C754.799 819.927 770.553 813.373 788.4 802.458C787.762 806.476 787.435 808.876 787.274 812.915C796.098 818.738 803.846 824.79 812.411 830.812L879.571 878.662L922.304 909.393C930.423 915.248 950.181 930.442 958.775 932.652C967.54 930.676 972.381 926.242 977.925 919.38C979.98 920.351 994.493 931.026 995.886 932.487C993.606 935.57 962.325 950.012 957.238 951.05C956.823 950.935 956.409 950.82 955.995 950.705C943.392 945.618 930.386 937.602 918.433 931.267C879.204 910.475 840.796 888.271 801.624 867.36C787.122 859.618 773.392 851.218 758.487 844.236C738.766 846.824 720.299 852.444 699.642 850.235C695.273 849.768 676.763 849.28 674.569 846.887Z"/><path fill="#21053F" d="M582.12 752.114C579.782 749.498 577.657 746.699 575.765 743.744C555.18 711.519 571.941 679.393 601.936 661.056C639.545 638.371 686.42 636.47 728.442 644.863C766.583 652.48 823.191 683.371 812.706 730.083C815.024 734.953 814.716 738.228 814.422 743.579C814.668 753.362 817.186 768.632 809.792 775.523C805.599 779.431 800.687 782.652 796.527 786.599C789.261 798.614 785.159 799.932 772.629 806.264C748.579 818.42 722.049 823.669 695.141 822.964C655.203 822.614 611.571 812.137 582.438 783.207C576.93 777.737 570.83 769.132 568.783 761.588C565.646 755.072 566.489 742.293 566.617 734.992C568.879 741.045 571.723 745.252 575.204 750.681C576.358 752.079 577.585 753.512 578.671 754.955C580.761 753.869 580.675 753.96 582.12 752.114Z"/><path fill="#49C9A0" d="M805.029 747.347C808.609 741.364 810.669 736.666 812.706 730.083C815.024 734.953 814.716 738.228 814.422 743.579C814.668 753.362 817.186 768.632 809.792 775.523C805.599 779.431 800.687 782.652 796.527 786.599C789.261 798.614 785.159 799.932 772.629 806.264C748.579 818.42 722.049 823.669 695.141 822.964C655.203 822.614 611.571 812.137 582.438 783.207C576.93 777.737 570.83 769.132 568.783 761.588C565.646 755.072 566.489 742.293 566.617 734.992C568.879 741.045 571.723 745.252 575.204 750.681C576.358 752.079 577.585 753.512 578.671 754.955C580.761 753.869 580.675 753.96 582.12 752.114C593.731 764.279 605.04 771.582 620.359 778.357C634.747 784.143 649.798 788.121 665.167 790.197C709.211 796.09 754.756 791.044 791.098 763.318C796.582 758.075 800.492 753.464 805.029 747.347Z"/><path fill="#63FAD9" d="M582.12 752.114C593.731 764.279 605.04 771.582 620.359 778.357C620.073 778.522 619.564 778.624 619.216 778.72C614.526 776.577 609.973 774.283 605.432 771.848C602.346 770.193 600.677 767.148 597.148 768.527L597.088 769.021C601.243 772.689 608.322 775.302 613.163 778.23C613.028 778.247 612.894 778.263 612.759 778.28C602.225 774.618 584.917 762.609 578.671 754.955C580.761 753.869 580.675 753.96 582.12 752.114Z"/><path fill="#A6FAED" d="M805.029 747.347C808.609 741.364 810.669 736.666 812.706 730.083C815.024 734.953 814.716 738.228 814.422 743.579C814.219 740.991 814.069 738.4 813.974 735.806C811.663 741.726 810.674 743.809 807.105 749L805.029 747.347Z"/><path fill="#63FAD9" d="M791.098 763.318C796.582 758.075 800.492 753.464 805.029 747.347L807.105 749C804.922 752.114 804.325 753.275 801.154 755.401L801.491 754.815C799.356 756.779 793.4 763.18 791.098 763.318Z"/><path fill="#FDFDFE" d="M682.761 644.718C718.972 644.135 760.091 654.401 788.092 678.459C811.732 698.771 816.574 730.444 794.011 753.869C770.19 778.6 731.396 787.024 697.935 788.334C661.808 788.757 620.174 779.066 592.197 755.11C568.147 734.516 564.062 703.255 586.658 679.619C612.108 653 647.515 646.451 682.761 644.718Z"/><path fill="#403053" d="M699.729 687.243C716.091 695.739 736.343 708.666 752.685 718.099L778.816 733.081C784.168 736.127 791.179 739.862 796.085 743.431C791.679 748.401 787.766 752.769 782.488 756.922C764.015 771.456 738.241 779.612 714.957 782.009C712.622 782.156 709.083 782.691 707.215 781.345L704.52 779.748C703.401 780.016 702.422 780.237 701.291 780.448C700.763 781.238 700.768 781.026 700.574 781.891L701.193 782.858L700.308 783.324C667.402 782.436 635.553 778.373 607.136 759.891C605.297 758.367 605.135 758.12 602.942 757.351C598.75 754.951 593.474 749.7 589.891 746.218L655.512 711.068C668.128 704.192 687.015 693.246 699.729 687.243Z"/><path fill="#403053" d="M699.729 687.243C716.091 695.739 736.343 708.666 752.685 718.099L778.816 733.081C784.168 736.127 791.179 739.862 796.085 743.431C791.679 748.401 787.766 752.769 782.488 756.922C764.015 771.456 738.241 779.612 714.957 782.009C712.622 782.156 709.083 782.691 707.215 781.345C709.087 779.906 711.882 778.507 713.989 777.391C731.09 768.33 748.478 759.758 765.235 750.062C762.398 748.343 759.852 746.78 756.89 745.276C752.264 746.968 702.519 712.343 694.905 711.972C694.141 712.393 690.85 714.143 690.366 714.552L660.263 730.907C656.082 733.184 649.276 737.166 645.141 739.069L644.85 738.339C639.703 739.739 639.6 743.116 634.456 742.696C634.25 743.675 634.423 743.195 633.913 744.129L632.79 744.329L632.402 745.253L632.539 745.483C631.438 746.979 612.624 756.943 609.392 758.833L607.136 759.891C605.297 758.367 605.135 758.12 602.942 757.351C598.75 754.951 593.474 749.7 589.891 746.218L655.512 711.068C668.128 704.192 687.015 693.246 699.729 687.243Z"/><path fill="#98FAEE" d="M698.045 705.232C700.987 707.414 704.812 709.803 708.031 711.604C724.928 721.053 741.521 731.824 758.444 741.136C760.994 742.702 763.815 744.528 766.382 746.001C768.582 747.657 770.808 749.136 773.086 750.676C761.598 757.15 750.022 763.465 738.359 769.618C733.778 772.003 718.051 779.79 714.957 782.009C712.622 782.156 709.083 782.691 707.215 781.345C709.087 779.906 711.882 778.507 713.989 777.391C731.09 768.33 748.478 759.758 765.235 750.062C762.398 748.343 759.852 746.78 756.89 745.276C752.264 746.968 702.519 712.343 694.905 711.972C694.141 712.393 690.85 714.143 690.366 714.552L660.263 730.907C656.082 733.184 649.276 737.166 645.141 739.069L644.85 738.339C639.703 739.739 639.6 743.116 634.456 742.696C634.25 743.675 634.423 743.195 633.913 744.129L632.79 744.329L632.402 745.253L632.539 745.483C631.438 746.979 612.624 756.943 609.392 758.833L607.136 759.891C605.297 758.367 605.135 758.12 602.942 757.351C617.891 749.902 634.085 740.454 648.835 732.343C664.707 723.614 682.727 714.585 698.045 705.232Z"/><path fill="#14132C" d="M694.905 711.972C697.107 711.293 698.049 710.525 700.183 711.87C718.529 723.437 738.69 733.688 756.89 745.276C752.264 746.968 702.519 712.343 694.905 711.972Z"/><path fill="#14132C" d="M758.444 741.136C761.416 741.025 765.879 742.789 766.382 746.001C763.815 744.528 760.994 742.702 758.444 741.136Z"/><path fill="#403053" d="M632.539 745.483C634.142 745.229 634.534 744.894 636.064 745.749C653.918 755.726 672.194 765.564 689.857 775.827C693.736 777.817 696.836 779.629 700.574 781.891L701.193 782.858L700.308 783.324C667.402 782.436 635.553 778.373 607.136 759.891L609.392 758.833C612.624 756.943 631.438 746.979 632.539 745.483Z"/><path fill="#14132C" d="M632.539 745.483C634.142 745.229 634.534 744.894 636.064 745.749C653.918 755.726 672.194 765.564 689.857 775.827C691.255 777.478 691.657 777.573 693.692 778.342L694.104 779.389C691.933 779.529 688.771 778.06 687.02 776.85C679.785 771.847 671.198 767.081 663.447 762.753C654.645 757.838 643.43 750.844 634.448 746.763C627.296 750.738 619.73 755.341 612.372 758.932C610.717 759.739 610.748 759.422 609.392 758.833C612.624 756.943 631.438 746.979 632.539 745.483Z"/><path fill="#A6FAED" d="M632.539 745.483L632.402 745.253L632.79 744.329L633.913 744.129C634.423 743.195 634.25 743.675 634.456 742.696C639.6 743.116 639.703 739.739 644.85 738.339L645.141 739.069L641.133 741.393L639.997 742.12C641.315 744.427 696.915 774.593 704.52 779.748C703.401 780.016 702.422 780.237 701.291 780.448C700.763 781.238 700.768 781.026 700.574 781.891C696.836 779.629 693.736 777.817 689.857 775.827C672.194 765.564 653.918 755.726 636.064 745.749C634.534 744.894 634.142 745.229 632.539 745.483Z"/><path fill="#14132C" d="M690.366 714.552C690.251 714.93 690.136 715.308 690.021 715.686C680.843 721.712 668.333 728.432 658.915 733.487C654.805 735.693 644.313 741.598 641.775 741.683L641.133 741.393L645.141 739.069C649.276 737.166 656.082 733.184 660.263 730.907L690.366 714.552Z"/><path fill="#403053" d="M673.873 674.711C677.277 674.249 686.026 674.391 689.608 674.473C714.288 675.037 738.796 680.641 760.764 692.109C779.236 701.752 793.862 711.702 800.512 732.209C799.868 734.989 798.835 737.65 797.867 740.335C788.897 733.134 767.591 721.697 757.125 715.673C739.052 705.16 721.042 694.538 703.098 683.805L700.802 682.722C697.859 682.591 686.597 689.702 683.213 691.441C656.542 705.142 630.486 720.077 603.82 733.801C598.488 736.546 592.466 740.656 587.04 742.837C583.546 738.221 581.772 734.823 579.36 729.577C592.564 692.509 638.077 677.613 673.873 674.711Z"/><path fill="#49C9A0" d="M678.319 648.217C684.012 648.005 689.712 648.109 695.393 648.527C733.176 651.247 780.506 664.016 800.101 700.744C804.797 709.547 804.471 718.633 803.754 728.312C801.46 722.811 797.98 715.868 794.009 711.462C772.344 687.427 734.794 674.575 703.621 671.625C696.986 671.162 690.391 670.414 683.732 670.546C642.549 671.363 593.843 685.101 576.837 726.139C576.232 723.302 575.828 720.427 575.627 717.534C574.786 703.759 580.235 691.939 589.367 681.87C610.461 658.613 648.014 649.847 678.319 648.217Z"/><path fill="#403053" d="M564.845 769.551L566.306 768.779C567.834 769.548 573.699 779.487 576.076 782.46C569.048 786.317 561.982 790.106 554.881 793.826C552.214 795.242 545.683 798.592 543.428 800.165C540.675 804.12 531.527 806.14 531.004 809.234L531.499 809.678C532.393 809.274 532.907 809.116 533.794 808.8C537.219 807.583 540.488 803.425 544.384 803.773C555.939 798.142 567.452 791.637 579.108 785.857C597.65 803.819 618.143 814.467 643.123 820.799C644.981 821.27 650.435 822.526 651.672 823.512L651.578 824.013L652.201 824.581C653.531 824.731 653.453 824.556 654.569 825.246L653.369 825.782L653.612 826.749C655.227 825.989 656.859 825.293 658.33 824.287C666.293 824.858 677.421 826.15 685.55 827.201C683.201 828.397 678.482 830.965 676.222 831.844C672.724 833.853 669.562 835.634 665.964 837.447C658.171 841.997 649.806 846.35 641.894 850.731C639.823 851.877 630.955 856.845 629.016 857.566C617.325 863.766 602.018 872.638 590.486 878.273C585.165 881.848 574.315 887.399 568.418 890.644L519.397 917.364C508.539 923.403 497.72 929.511 486.94 935.688C474.108 942.99 466.224 950.334 451.083 943.7C450.348 942.69 402.813 915.603 397.505 911.794C390.023 907.484 382.645 902.996 375.377 898.334C373.78 897.591 366.625 892.99 364.551 891.748C363.177 892.872 362.777 893.253 361.152 894.083L356.411 890.989C356.796 889.301 356.856 888.715 357.011 886.97C357.009 885.572 357.054 885.65 357.651 884.362C360.199 880.804 376.326 872.909 381.064 870.311L420.855 848.207L564.845 769.551Z"/><path fill="#403053" d="M579.108 785.857C597.65 803.819 618.143 814.467 643.123 820.799C644.981 821.27 650.435 822.526 651.672 823.512L651.578 824.013C646.046 826.312 636.506 831.819 630.745 834.926C618.932 841.237 607.167 847.64 595.452 854.132C591.366 856.429 574.584 866.889 571.31 865.652C566.242 862.198 559.316 858.435 553.89 855.266L525.914 838.629C519.094 834.603 511.063 830.158 504.671 825.746C517.559 818.307 531.736 811.437 544.384 803.773C555.939 798.142 567.452 791.637 579.108 785.857Z"/><path fill="#98FAEE" d="M497.483 826.094C506.976 819.388 518.924 813.967 528.927 807.981C533.432 805.285 538.709 802.513 543.428 800.165C540.675 804.12 531.527 806.14 531.004 809.234L531.499 809.678C532.393 809.274 532.907 809.116 533.794 808.8C537.219 807.583 540.488 803.425 544.384 803.773C531.736 811.437 517.559 818.307 504.671 825.746C511.063 830.158 519.094 834.603 525.914 838.629L553.89 855.266C559.316 858.435 566.242 862.198 571.31 865.652C569.417 866.711 569.192 866.413 568.461 868.579L525.387 843.188C516.469 837.911 505.878 831.912 497.483 826.094Z"/><path fill="#14132C" d="M564.845 769.551L566.461 770.21C565.681 771.362 564.041 772.337 562.837 773.008L358.48 884.632L357.651 884.362C360.199 880.804 376.326 872.909 381.064 870.311L420.855 848.207L564.845 769.551Z"/><defs><linearGradient id="gradient_2" gradientUnits="userSpaceOnUse" x1="606.26465" y1="838.94482" x2="619.11066" y2="854.40509"><stop offset="0" stop-color="#AEFFF2"/><stop offset="1" stop-color="#C1F3FC"/></linearGradient></defs><path fill="url(#gradient_2)" d="M571.31 865.652C574.584 866.889 591.366 856.429 595.452 854.132C607.167 847.64 618.932 841.237 630.745 834.926C636.506 831.819 646.046 826.312 651.578 824.013L652.201 824.581C653.531 824.731 653.453 824.556 654.569 825.246L653.369 825.782L653.612 826.749L651.531 828.336C646.925 830.217 630.319 839.901 625.094 842.73C613.541 848.934 602.042 855.24 590.601 861.648C585.071 864.727 578.398 868.143 573.176 871.538L568.461 868.579C569.192 866.413 569.417 866.711 571.31 865.652Z"/><path fill="#14132C" d="M651.531 828.336C654.346 827.04 655.866 825.984 658.884 826.148C650.169 829.833 643.482 834.759 635.27 839.192L572.741 873.393C564.692 867.349 496.899 829.052 496.299 826.377L497.483 826.094C505.878 831.912 516.469 837.911 525.387 843.188L568.461 868.579L573.176 871.538C578.398 868.143 585.071 864.727 590.601 861.648C602.042 855.24 613.541 848.934 625.094 842.73C630.319 839.901 646.925 830.217 651.531 828.336Z"/><path fill="#14132C" d="M590.486 878.273L590.293 877.497C590.468 877.33 590.643 877.164 590.818 876.997C602.433 869.973 615.309 863.421 627.52 857.437C628.019 857.48 628.518 857.523 629.016 857.566C617.325 863.766 602.018 872.638 590.486 878.273Z"/><path fill="#14132C" d="M375.377 898.334C378.26 898.001 396.987 909.186 397.711 911.244L397.505 911.794C390.023 907.484 382.645 902.996 375.377 898.334Z"/><path fill="#A6FAED" d="M357.011 886.97C359.592 888.725 361.876 890.142 364.551 891.748C363.177 892.872 362.777 893.253 361.152 894.083L356.411 890.989C356.796 889.301 356.856 888.715 357.011 886.97Z"/><path fill="#2B195D" d="M665.964 837.447L665.491 836.844C669.293 834.691 672.174 830.24 676.222 831.844C672.724 833.853 669.562 835.634 665.964 837.447Z"/><path fill="#A6FAED" d="M385.186 885.499C390.047 881.057 417.756 867.291 425.399 863.021C434.021 858.205 446.974 850.839 455.849 846.21C474.254 856.98 492.527 867.976 510.663 879.196C514.864 881.799 528.126 889.75 531.122 892.634C531.457 893.145 531.281 892.793 531.413 893.777C529.628 896.26 470.294 929.434 462.634 933.375C457.818 929.77 452.34 927.116 447.396 923.683C427.276 909.714 406.15 898.111 384.692 886.446C383.656 885.883 383.626 885.684 383.479 884.69L384.422 884.639L385.186 885.499Z"/><path fill="#403053" d="M451.092 853.409C452.527 852.673 454.208 851.751 455.646 851.09C466.936 858.477 479.26 865.224 490.943 872.042C500.704 877.853 510.402 883.769 520.036 889.788C521.854 890.668 522.566 891.015 524.213 892.151L493.188 909.465C489.031 911.776 478.959 917.173 475.615 919.694C472.257 921.218 466.863 924.569 463.515 926.514C440.261 911.894 416.281 898.994 393.581 884.761C395.49 883.704 396.792 883.034 398.793 882.172C404.844 878.535 412.663 874.537 418.951 871.151C422.437 868.058 445.823 856.051 451.092 853.409Z"/><path fill="#14132C" d="M451.092 853.409C452.527 852.673 454.208 851.751 455.646 851.09C466.936 858.477 479.26 865.224 490.943 872.042C500.704 877.853 510.402 883.769 520.036 889.788C515.959 890.269 503.26 880.981 498.81 878.652C484.57 871.198 469.398 860.446 454.887 853.857L454.091 853.501L455.73 853.408L454.696 852.766C453.352 853.127 452.508 853.303 451.092 853.409Z"/><path fill="#14132C" d="M418.951 871.151C419.042 871.704 419.336 872.319 418.802 872.685C414.943 875.329 403.125 882.55 398.793 882.172C404.844 878.535 412.663 874.537 418.951 871.151Z"/><path fill="#98FAEE" d="M475.615 919.694C478.959 917.173 489.031 911.776 493.188 909.465L524.213 892.151C526.64 892.634 527.078 892.272 528.195 894.793C516.85 901.019 505.547 907.325 494.289 913.708C491.116 915.516 479.013 922.7 476.456 923.693C473.712 923.516 467.414 927.878 464.502 929.463L463.933 929.027C465.184 924.802 473.13 923.761 475.615 919.694Z"/><path fill="#14132C" d="M462.634 933.375C457.818 929.77 452.34 927.116 447.396 923.683C427.276 909.714 406.15 898.111 384.692 886.446C383.656 885.883 383.626 885.684 383.479 884.69L384.422 884.639L385.186 885.499C404.735 895.937 423.939 907.008 442.768 918.695C448.688 922.383 457.637 927.572 463.096 931.525C466.756 929.362 473.092 925.94 476.456 923.693C479.013 922.7 491.116 915.516 494.289 913.708C505.547 907.325 516.85 901.019 528.195 894.793C529.288 894.272 530.158 893.423 531.122 892.634C531.457 893.145 531.281 892.793 531.413 893.777C529.628 896.26 470.294 929.434 462.634 933.375Z"/><path fill="#49C9A0" d="M851.981 812.697C853.514 811.913 856.435 810.34 857.817 811.298C864.643 816.03 874.166 823.089 880.791 827.736L976.907 894.834L972.508 896.052C959.892 903.203 953.296 910.398 951.772 925.231L947.775 922.182C940.288 916.599 932.214 911.277 924.585 905.79L875.686 870.565C867.006 864.434 845.103 849.675 838.045 843.031C838.472 830.551 841.659 820.276 851.981 812.697Z"/><path fill="#21053F" d="M851.981 812.697C853.514 811.913 856.435 810.34 857.817 811.298C864.643 816.03 874.166 823.089 880.791 827.736L976.907 894.834L972.508 896.052C971.114 895.06 970.93 895.052 969.383 894.453C957.519 887.544 940.923 874.157 928.941 865.991C909.25 852.784 889.782 839.247 870.545 825.388C865.621 821.892 855.875 816.18 851.981 812.697Z"/><path fill="#2B195D" d="M969.383 894.453C970.93 895.052 971.114 895.06 972.508 896.052C959.892 903.203 953.296 910.398 951.772 925.231L947.775 922.182C950.334 908.964 956.719 899.544 969.383 894.453Z"/><path fill="#15797B" d="M452.154 948.631C456.104 950.497 465.692 950.783 469.485 949.044C483.964 942.406 498.592 933.037 512.497 925.298L641.706 854.753C652.138 849.164 662.529 843.501 672.88 837.763C679.135 834.358 685.86 830.715 692.367 827.828C694.269 826.984 700.332 827.161 702.762 827.149C693.599 833.051 675.14 842.173 664.915 847.763C637.839 862.716 610.681 877.521 583.443 892.177L509.868 932.619C497.9 939.17 485.528 946.094 473.379 952.207C457.013 960.442 436.207 944.955 422.617 936.782L388.408 916.262C378.833 910.467 366.392 903.512 357.452 896.723C356.101 895.698 356.42 892.903 356.411 890.989L361.152 894.083C362.777 893.253 363.177 892.872 364.551 891.748C366.625 892.99 373.78 897.591 375.377 898.334C382.645 902.996 390.023 907.484 397.505 911.794C402.813 915.603 450.348 942.69 451.083 943.7C448.56 944.027 447.956 942.002 445.438 942.124C445.446 944.484 450.08 946.227 452.154 948.631Z"/><path fill="#98FAEE" d="M364.551 891.748C366.625 892.99 373.78 897.591 375.377 898.334C382.645 902.996 390.023 907.484 397.505 911.794C402.813 915.603 450.348 942.69 451.083 943.7C448.56 944.027 447.956 942.002 445.438 942.124C445.446 944.484 450.08 946.227 452.154 948.631C443.967 945.082 430.429 935.883 422.104 931.043C401.475 919.048 381.241 906.982 361.152 894.083C362.777 893.253 363.177 892.872 364.551 891.748Z"/><path fill="#21053F" d="M849.433 801.055C852.448 800.952 859.597 804.579 859.357 807.488C854.053 806.502 853.702 806.124 849.153 809.711C840.239 816.74 835.48 826.735 834.264 837.875C834.065 839.102 834.193 838.711 833.654 839.862C831.6 839.05 826.387 836.044 826.334 833.785C825.979 818.538 835.882 805.361 849.433 801.055Z"/><path fill="#21053F" d="M838.152 792.913C840.357 793.198 844.694 796.51 846.708 797.9C830.198 802.624 823.594 816.109 821.85 832.214L821.386 832.27C818.361 830.549 816.034 828.59 813.311 826.437C815.271 810.616 823.654 799.369 838.152 792.913Z"/><path fill="#21053F" d="M816.185 777.423C816.813 777.58 823.64 782.211 824.557 782.819C809.035 790.051 802.248 798.485 799.189 815.281C797.628 815.509 792.743 811.767 791.175 810.678C792.861 793.69 802.875 786.365 816.185 777.423Z"/><path fill="#21053F" d="M976.915 899.461L978.736 899.488C983.187 902.368 979.479 908.939 977.526 912.531C974.031 918.959 967.312 926.078 960.144 928.148C955.05 927.024 955.786 921.779 957.342 918.054C961.155 908.923 967.95 903.252 976.915 899.461Z"/><path fill="#21053F" d="M828.046 786.099C830.046 786.668 833.674 788.503 834.781 790.219C831.773 790.902 828.951 792.235 826.512 794.124C816.65 801.681 811.494 811.388 809.713 823.551C807.27 822.156 804.897 820.04 802.692 818.235C806.388 801.565 811.549 792.626 828.046 786.099Z"/><path fill="#FDFDFE" d="M906.252 251.963C909.511 252.714 949.44 277.327 954.712 280.544C955.609 303.893 954.935 331.523 954.958 355.151L955.116 494.996C951.542 498.098 942.297 503.182 937.868 505.74L909.256 522.225C906.985 522.087 866.16 497.272 861.16 494.233C860.815 478.211 861.119 460.918 861.064 444.738L861.092 279.225C872.972 271.374 893.784 259.069 906.252 251.963Z"/><path fill="#2B195D" d="M906.264 257.416C908.764 258.17 919.727 265.046 922.422 266.679C931.641 272.373 940.952 277.918 950.35 283.312L950.504 493.103C937.399 501.365 922.671 509.544 909.169 517.304C908.457 517.572 908.326 517.869 907.744 517.452C897.208 509.895 885.895 503.562 874.749 496.961C871.731 495.173 868.815 493.37 865.519 492.129L865.484 355.141C865.519 330.936 865.995 305.778 865.654 281.692C878.951 274.251 893.123 265.334 906.264 257.416Z"/><path fill="#49C9A0" d="M869.267 286.626C872.301 287.952 880.693 293.396 883.857 295.336C891.638 300.11 899.498 304.752 907.435 309.26L907.012 511.378C905.157 511.392 872.83 491.644 869.214 489.347C868.441 422.752 868.624 353.27 869.267 286.626Z"/><path fill="#49C9A0" d="M945.959 288.525C946.898 289.73 946.494 350.09 946.491 357.53L946.496 490.572C935.125 497.313 922.617 504.107 911.566 510.996L911.334 510.784C910.467 508.471 910.996 462.608 910.999 457.157L911.004 309.621C922.953 303.471 934.292 295.275 945.959 288.525Z"/><path fill="#49C9A0" d="M905.274 262.408C907.958 262.488 939.657 281.743 944.981 284.64C933.543 290.867 921.668 298.677 910.173 305.321C909.257 305.555 908.746 305.686 907.84 305.191C895.434 298.426 883.706 290.119 871.344 283.288L905.274 262.408Z"/><path fill="#FDFDFE" d="M712.439 152.394C714.301 152.638 755.667 177.16 758.874 179.329C759.322 204.443 758.971 230.699 758.965 255.947L759.069 371.196C746.653 377.186 728.341 388.648 715.325 394.731C714.849 394.694 714.374 394.657 713.898 394.619C698.106 384.792 682.765 374.909 666.249 366.303L666.405 178.635C679.804 170.052 698.285 160.251 712.439 152.394Z"/><path fill="#2B195D" d="M712.078 157.358C716.123 158.892 751.135 179.471 754.415 182.44C754.997 202.05 754.462 224.555 754.468 244.352L754.518 367.78C745.297 373.165 735.988 378.398 726.594 383.476C723.516 385.128 717.929 388.3 714.997 389.411L714.244 388.923C700.32 381.062 684.494 371.485 670.811 363.092C670.046 317.166 671.46 270.437 670.78 224.444C670.572 210.386 671.169 195.273 670.656 181.423C684.279 173.353 698.68 165.673 712.078 157.358Z"/><path fill="#49C9A0" d="M674.541 186.742C686.829 194.282 700.794 201.425 712.439 208.907L712.587 383.871C699.715 376.343 687.305 368.464 674.501 360.841L674.541 186.742Z"/><path fill="#49C9A0" d="M750.044 186.566C751.189 189.206 750.437 348.243 750.448 365.555C740.963 371.073 726.68 379.779 717.156 384.375C715.83 380.219 716.482 343.367 716.474 336.743L716.319 208.113C727.526 201.645 739.241 193.762 750.044 186.566Z"/><path fill="#49C9A0" d="M712.323 161.94C714.793 162.735 725.112 169.199 727.924 170.904C734.754 175.118 741.699 179.143 748.75 182.976C746.813 184.388 744.14 185.961 742.057 187.2C732.591 192.833 723.462 199.517 713.939 204.991C701.837 198.421 687.806 189.995 675.945 182.905C687.797 176.879 700.46 168.581 712.323 161.94Z"/><path fill="#FDFDFE" d="M809.54 283.509C825.007 292.278 838.868 301.798 855.011 310.207C855.399 339.732 854.868 369.362 855.244 398.899C855.401 411.266 855.366 423.799 855.091 436.164C850.543 439.233 813.049 461.36 810.707 461.703C802.961 456.765 795.132 451.961 787.222 447.291C779.175 442.533 770.85 438.018 763.641 432.088L763.506 312.18C768.902 307.196 779.38 301.528 786.105 297.542L809.54 283.509Z"/><path fill="#2B195D" d="M808.569 289.348C810.922 289.597 846.983 311.447 850.818 313.728C850.248 328.256 850.536 343.921 850.532 358.544L850.552 433.466C838.719 440.916 823.763 450.214 811.346 456.422C805.024 453.226 796.801 447.982 790.596 444.252C783.634 440.066 774.652 434.975 768.346 430.245L768.131 314.447C778.937 306.643 796.673 296.551 808.569 289.348Z"/><path fill="#49C9A0" d="M772.047 317.286C784.037 324.859 797.485 332.676 809.013 340.298L809.22 410C809.266 423.113 809.576 437.301 809.195 450.298C806.936 450.216 776.42 431.334 772.024 428.675L772.047 317.286Z"/><path fill="#49C9A0" d="M845.752 319.448L846.197 319.512C847.307 322.14 846.5 420.165 846.741 431.485C835.694 436.965 825.571 444.88 813.645 450.222C812.894 446.715 813.131 424.742 813.088 419.801C812.742 393.389 812.617 366.975 812.712 340.561C815.977 338.184 822.216 334.614 825.94 332.291C832.579 328.065 839.183 323.784 845.752 319.448Z"/><path fill="#49C9A0" d="M808.585 293.935C812.131 294.788 839.758 312.038 846.139 315.293C835.429 321.274 822.449 329.87 811.681 336.443L811.126 336.616C807.967 335.778 778.88 317.483 774.632 314.666C784.534 309.434 798.858 300.063 808.585 293.935Z"/><path fill="#A6FAED" d="M650.649 426.746C654.84 427.749 665.941 433.897 668.65 437.67C669.08 438.268 668.562 439.603 668.356 440.513C665.498 440.136 653.582 433.363 651.304 430.766C650.205 429.514 650.573 428.374 650.649 426.746Z"/><path fill="#63FAD9" d="M676.618 443.706C681.282 444.095 690.785 450.462 694.138 454.227C694.63 454.78 694.244 455.664 694.114 456.409C690.675 457.262 680.522 449.925 677.416 447.342C676.25 446.373 676.585 445.034 676.618 443.706Z"/><path fill="#98FAEE" d="M748.684 488.241C752.932 488.208 760.77 493.99 763.869 497.05C764.909 498.077 764.412 499.81 764.278 501.116C760.716 499.906 752.397 494.648 749.424 491.753C748.256 490.615 748.593 489.644 748.684 488.241Z"/><path fill="#63FAD9" d="M970.078 628.222C976.175 631.491 974.871 641.57 970.712 646.297C969.474 645.937 969.881 646.138 968.884 645.363C968.01 642.752 969.284 638.617 969.917 635.815C968.029 631.877 967.035 631.449 970.078 628.222Z"/><path fill="#98FAEE" d="M724.52 473.314C728.121 473.413 739.244 480.197 741.104 483.563C741.388 484.075 740.5 485.348 740.217 485.885C737.253 485.374 727.175 478.848 724.87 476.33C723.859 475.225 724.268 474.573 724.52 473.314Z"/><path fill="#63FAD9" d="M841.261 725.856C841.873 725.835 842.335 726.049 842.972 726.232C843.689 727.635 843.559 726.896 843.241 728.542C840.705 731.691 833.79 735.382 830.055 737.538C828.858 736.859 828.909 736.765 828.048 735.652L828.305 734.468C831.212 731.262 837.309 728.132 841.261 725.856Z"/><path fill="#63FAD9" d="M948.301 608.01C951.828 608.802 960.095 612.464 962.29 615.894C963.109 617.174 962.389 618.178 961.875 619.669C959.039 619.937 951.321 613.421 948.855 611.399C947.662 610.422 948.121 609.256 948.301 608.01Z"/><path fill="#63FAD9" d="M866.247 711.445C868.103 712.445 868.118 712.23 868.598 713.732C867.291 716.62 858.898 720.607 855.511 722.526C854.259 721.699 853.627 721.217 853.403 719.817C855.061 716.72 862.852 713.246 866.247 711.445Z"/><path fill="#63FAD9" d="M939.973 669.878C940.775 670.077 941.126 670.342 941.879 670.73C942.188 671.39 942.566 671.778 942.263 672.269C940.568 675.005 932.193 679.109 929.187 680.772C927.53 680.163 926.913 679.802 927.036 678.1C929.236 675.078 936.385 671.761 939.973 669.878Z"/><path fill="#63FAD9" d="M825.635 532.135C828.996 533.994 837.536 538.85 839.538 542.261C839.914 542.902 839.145 544.194 838.783 545.104C835.492 543.032 826.91 537.84 824.413 535.538C824.302 533.83 824.632 533.944 825.635 532.135Z"/><path fill="#63FAD9" d="M774.403 503.154C777.892 504.079 787.096 508.865 789.008 512.021C789.158 513.616 789.151 513.501 788.337 514.893C785.065 513.15 774.392 508.031 773.41 505.033L774.403 503.154Z"/><path fill="#63FAD9" d="M891.616 696.884C892.938 697.43 892.925 698.139 893.021 699.307C891.669 702.17 882.985 706.693 879.908 708.395C878.577 707.38 878.416 707.373 877.488 705.926C878.728 703.898 888.97 698.405 891.616 696.884Z"/><path fill="#63FAD9" d="M915.393 683.378C916.755 684.267 916.973 684.55 917.2 685.927C915.773 688.552 906.871 693.044 903.839 694.858C902.945 694.189 902.141 693.488 901.288 692.769C902.317 690.653 912.741 684.951 915.393 683.378Z"/><path fill="#63FAD9" d="M962.187 654.357L963.761 654.751C965.067 656.049 964.785 655.303 964.808 656.991C962.959 660.213 956.563 663.752 953.209 665.848C951.347 664.939 951.98 665.591 950.963 664.108C951.532 661.606 959.578 656.362 962.187 654.357Z"/><path fill="#63FAD9" d="M875.012 562.746C877.89 563.136 887.04 568.815 889.573 570.67C890.253 572.659 889.953 572.301 889.47 574.698C887.08 574.094 878.786 569.058 876.84 567.059C874.93 565.097 875.106 565.142 875.012 562.746Z"/><path fill="#98FAEE" d="M703.3 459.356C706.534 460.276 716.89 465.962 717.543 469.486L716.222 471.022C712.96 469.146 702.769 464.397 701.948 461.003L703.3 459.356Z"/><path fill="#63FAD9" d="M850.21 547.726C853.94 548.006 862.261 553.487 865.006 556.271C865.56 556.833 865.055 558.147 864.907 558.941C861.465 559.123 854.051 553.66 851.348 551.249C849.983 550.031 850.211 549.371 850.21 547.726Z"/><path fill="#63FAD9" d="M922.944 592.786C927.204 593.129 933.781 596.516 936.825 599.707C937.944 600.88 937.433 601.741 937.165 603.402C933.889 602.777 926.259 598.214 923.726 595.732C922.587 594.615 922.946 594.434 922.944 592.786Z"/><path fill="#63FAD9" d="M900.335 577.756C903.596 578.721 912.352 583.485 914.499 586.61C914.922 587.225 914.408 588.459 914.193 589.388C910.655 588.116 901.923 583.661 899.979 580.219C899.565 579.486 900.019 578.846 900.335 577.756Z"/><path fill="#63FAD9" d="M800.357 517.647C802.642 518.325 810.889 523.536 812.657 525.548C813.868 526.928 813.49 527.634 813.409 529.332C810.263 528.643 802.668 524.181 800.482 521.396C799.573 520.237 800.093 519.107 800.357 517.647Z"/></svg>